<?xml version="1.0" encoding="UTF-8" standalone="no"?>
<svg
   xmlns:dc="http://purl.org/dc/elements/1.1/"
   xmlns:cc="http://creativecommons.org/ns#"
   xmlns:rdf="http://www.w3.org/1999/02/22-rdf-syntax-ns#"
   xmlns:svg="http://www.w3.org/2000/svg"
   xmlns="http://www.w3.org/2000/svg"
   xmlns:sodipodi="http://sodipodi.sourceforge.net/DTD/sodipodi-0.dtd"
   xmlns:inkscape="http://www.inkscape.org/namespaces/inkscape"
   version="1.1"
   id="svg2"
   xml:space="preserve"
   width="707.96002"
   height="666.65332"
   viewBox="0 0 707.96002 666.65332"
   sodipodi:docname="GitHub-Mark.eps"><metadata
     id="metadata8"><rdf:RDF><cc:Work
         rdf:about=""><dc:format>image/svg+xml</dc:format><dc:type
           rdf:resource="http://purl.org/dc/dcmitype/StillImage" /></cc:Work></rdf:RDF></metadata><defs
     id="defs6" /><sodipodi:namedview
     pagecolor="#ffffff"
     bordercolor="#666666"
     borderopacity="1"
     objecttolerance="10"
     gridtolerance="10"
     guidetolerance="10"
     inkscape:pageopacity="0"
     inkscape:pageshadow="2"
     inkscape:window-width="640"
     inkscape:window-height="480"
     id="namedview4" /><g
     id="g10"
     inkscape:groupmode="layer"
     inkscape:label="ink_ext_XXXXXX"
     transform="matrix(1.3333333,0,0,-1.3333333,0,666.65333)"><g
       id="g12"
       transform="scale(0.1)"><path
         d="M 5309.73,0 H 0 V 2759.86 H 5309.73 V 0"
         style="fill:#231f20;fill-opacity:1;fill-rule:nonzero;stroke:none"
         id="path14" /><path
         d="m 1526.08,4445.45 c -89.94,0 -162.88,-72.93 -162.88,-162.9 0,-71.96 46.67,-133.02 111.4,-154.57 8.15,-1.49 11.12,3.54 11.12,7.86 0,3.87 -0.14,14.11 -0.22,27.7 -45.31,-9.84 -54.87,21.84 -54.87,21.84 -7.41,18.82 -18.09,23.83 -18.09,23.83 -14.79,10.1 1.12,9.9 1.12,9.9 16.35,-1.15 24.95,-16.79 24.95,-16.79 14.53,-24.89 38.13,-17.7 47.41,-13.53 1.48,10.52 5.69,17.7 10.34,21.77 -36.17,4.12 -74.2,18.09 -74.2,80.51 0,17.79 6.35,32.32 16.77,43.71 -1.68,4.12 -7.27,20.68 1.6,43.11 0,0 13.67,4.38 44.79,-16.69 12.99,3.61 26.93,5.41 40.78,5.48 13.84,-0.07 27.77,-1.87 40.78,-5.48 31.1,21.07 44.75,16.69 44.75,16.69 8.89,-22.43 3.3,-38.99 1.63,-43.11 10.44,-11.39 16.74,-25.92 16.74,-43.71 0,-62.58 -38.09,-76.35 -74.37,-80.38 5.84,-5.03 11.05,-14.97 11.05,-30.17 0,-21.77 -0.2,-39.34 -0.2,-44.68 0,-4.36 2.94,-9.43 11.2,-7.84 64.68,21.59 111.31,82.6 111.31,154.55 0,89.97 -72.94,162.9 -162.91,162.9"
         style="fill:#1b1817;fill-opacity:1;fill-rule:evenodd;stroke:none"
         id="path16" /><path
         d="m 3506.09,4935.55 c -333.47,0 -603.88,-270.36 -603.88,-603.88 0,-266.81 173.03,-493.17 412.97,-573.02 30.18,-5.59 41.26,13.1 41.26,29.05 0,14.4 -0.56,61.97 -0.82,112.43 -168,-36.53 -203.45,71.25 -203.45,71.25 -27.47,69.8 -67.05,88.36 -67.05,88.36 -54.79,37.48 4.13,36.71 4.13,36.71 60.64,-4.25 92.57,-62.24 92.57,-62.24 53.86,-92.31 141.27,-65.62 175.73,-50.19 5.42,39.03 21.07,65.68 38.34,80.75 -134.13,15.27 -275.13,67.05 -275.13,298.44 0,65.93 23.59,119.8 62.22,162.09 -6.27,15.22 -26.94,76.63 5.85,159.81 0,0 50.71,16.23 166.11,-61.9 48.17,13.38 99.83,20.09 151.15,20.32 51.32,-0.23 103.02,-6.94 151.28,-20.32 115.26,78.13 165.9,61.9 165.9,61.9 32.87,-83.18 12.19,-144.59 5.92,-159.81 38.72,-42.29 62.15,-96.16 62.15,-162.09 0,-231.94 -141.27,-283.01 -275.74,-297.96 21.66,-18.74 40.96,-55.49 40.96,-111.83 0,-80.8 -0.7,-145.83 -0.7,-165.72 0,-16.07 10.87,-34.9 41.48,-28.97 239.81,79.94 412.62,306.22 412.62,572.94 0,333.52 -270.37,603.88 -603.87,603.88"
         style="fill:#1b1817;fill-opacity:1;fill-rule:evenodd;stroke:none"
         id="path18" /><path
         d="m 3130.93,4068.51 c -1.33,-3.01 -6.05,-3.9 -10.35,-1.84 -4.38,1.97 -6.84,6.06 -5.42,9.07 1.3,3.08 6.03,3.94 10.4,1.89 4.39,-1.98 6.89,-6.11 5.37,-9.12 v 0"
         style="fill:#1b1817;fill-opacity:1;fill-rule:nonzero;stroke:none"
         id="path20" /><path
         d="m 3155.39,4041.23 c -2.88,-2.67 -8.51,-1.43 -12.33,2.79 -3.95,4.21 -4.69,9.84 -1.77,12.55 2.97,2.66 8.43,1.41 12.39,-2.79 3.95,-4.26 4.72,-9.85 1.71,-12.55 v 0"
         style="fill:#1b1817;fill-opacity:1;fill-rule:nonzero;stroke:none"
         id="path22" /><path
         d="m 3179.2,4006.45 c -3.7,-2.57 -9.75,-0.16 -13.49,5.21 -3.7,5.37 -3.7,11.81 0.08,14.39 3.75,2.58 9.71,0.25 13.5,-5.07 3.69,-5.46 3.69,-11.9 -0.09,-14.53 v 0"
         style="fill:#1b1817;fill-opacity:1;fill-rule:nonzero;stroke:none"
         id="path24" /><path
         d="m 3211.82,3972.85 c -3.31,-3.65 -10.36,-2.67 -15.52,2.31 -5.28,4.87 -6.75,11.78 -3.43,15.43 3.35,3.66 10.44,2.63 15.64,-2.31 5.24,-4.86 6.84,-11.82 3.31,-15.43 v 0"
         style="fill:#1b1817;fill-opacity:1;fill-rule:nonzero;stroke:none"
         id="path26" /><path
         d="m 3256.82,3953.34 c -1.46,-4.73 -8.25,-6.88 -15.09,-4.87 -6.83,2.07 -11.3,7.61 -9.92,12.39 1.42,4.76 8.24,7 15.13,4.85 6.82,-2.06 11.3,-7.56 9.88,-12.37 v 0"
         style="fill:#1b1817;fill-opacity:1;fill-rule:nonzero;stroke:none"
         id="path28" /><path
         d="m 3306.24,3949.72 c 0.17,-4.98 -5.63,-9.11 -12.81,-9.2 -7.22,-0.16 -13.06,3.87 -13.14,8.77 0,5.03 5.67,9.12 12.89,9.24 7.18,0.14 13.06,-3.86 13.06,-8.81 v 0"
         style="fill:#1b1817;fill-opacity:1;fill-rule:nonzero;stroke:none"
         id="path30" /><path
         d="m 3352.23,3957.55 c 0.86,-4.86 -4.13,-9.85 -11.26,-11.18 -7.01,-1.28 -13.5,1.72 -14.39,6.54 -0.87,4.98 4.21,9.97 11.21,11.26 7.14,1.24 13.53,-1.68 14.44,-6.62 v 0"
         style="fill:#1b1817;fill-opacity:1;fill-rule:nonzero;stroke:none"
         id="path32" /><path
         d="m 2248.98,4994.88 v -5"
         style="fill:none;stroke:#3a7fc3;stroke-width:10;stroke-linecap:round;stroke-linejoin:miter;stroke-miterlimit:10;stroke-dasharray:none;stroke-opacity:1"
         id="path34" /><path
         d="M 2248.98,4969.88 V 3629.95"
         style="fill:none;stroke:#3a7fc3;stroke-width:10;stroke-linecap:round;stroke-linejoin:miter;stroke-miterlimit:10;stroke-dasharray:9.9995, 19.999;stroke-dashoffset:0;stroke-opacity:1"
         id="path36" /><path
         d="m 2248.98,3619.95 v -5"
         style="fill:none;stroke:#3a7fc3;stroke-width:10;stroke-linecap:round;stroke-linejoin:miter;stroke-miterlimit:10;stroke-dasharray:none;stroke-opacity:1"
         id="path38" /><path
         d="m 1332.76,3474.79 c -3.81,2.77 -8.66,4.14 -14.58,4.14 -2.4,0 -4.76,-0.24 -7.08,-0.71 -2.33,-0.49 -4.38,-1.29 -6.18,-2.4 -1.8,-1.14 -3.24,-2.63 -4.33,-4.51 -1.07,-1.88 -1.61,-4.22 -1.61,-7.02 0,-2.63 0.77,-4.78 2.34,-6.42 1.55,-1.64 3.64,-2.98 6.24,-4.01 2.6,-1.05 5.53,-1.91 8.82,-2.59 3.28,-0.68 6.62,-1.42 10.02,-2.21 3.4,-0.8 6.73,-1.75 10.02,-2.83 3.28,-1.08 6.22,-2.54 8.82,-4.38 2.6,-1.83 4.68,-4.16 6.24,-6.95 1.56,-2.81 2.34,-6.33 2.34,-10.57 0,-4.56 -1.02,-8.45 -3.06,-11.7 -2.05,-3.24 -4.66,-5.88 -7.86,-7.92 -3.2,-2.04 -6.78,-3.52 -10.74,-4.44 -3.96,-0.92 -7.9,-1.38 -11.82,-1.38 -4.8,0 -9.34,0.6 -13.62,1.8 -4.28,1.2 -8.04,3.02 -11.28,5.46 -3.24,2.44 -5.8,5.57 -7.68,9.37 -1.88,3.79 -2.82,8.29 -2.82,13.49 h 10.8 c 0,-3.6 0.69,-6.7 2.1,-9.3 1.4,-2.6 3.24,-4.73 5.52,-6.41 2.28,-1.68 4.93,-2.93 7.98,-3.73 3.04,-0.8 6.15,-1.19 9.36,-1.19 2.56,0 5.14,0.23 7.74,0.72 2.6,0.47 4.94,1.29 7.02,2.46 2.08,1.15 3.76,2.73 5.04,4.73 1.28,2.01 1.92,4.57 1.92,7.68 0,2.96 -0.79,5.36 -2.34,7.2 -1.56,1.83 -3.65,3.34 -6.24,4.5 -2.61,1.16 -5.55,2.1 -8.82,2.82 -3.28,0.73 -6.62,1.47 -10.02,2.23 -3.4,0.75 -6.74,1.63 -10.02,2.64 -3.28,0.99 -6.23,2.31 -8.82,3.95 -2.6,1.64 -4.68,3.76 -6.24,6.36 -1.56,2.6 -2.34,5.86 -2.34,9.78 0,4.32 0.88,8.06 2.64,11.23 1.76,3.15 4.1,5.75 7.02,7.8 2.92,2.03 6.24,3.55 9.96,4.55 3.72,1.01 7.54,1.5 11.46,1.5 4.4,0 8.48,-0.53 12.24,-1.56 3.76,-1.04 7.06,-2.68 9.89,-4.92 2.85,-2.24 5.09,-5.06 6.73,-8.46 1.63,-3.4 2.54,-7.46 2.7,-12.18 h -10.8 c -0.65,6.17 -2.86,10.62 -6.66,13.38"
         style="fill:#176fc1;fill-opacity:1;fill-rule:nonzero;stroke:none"
         id="path40" /><path
         d="m 1375.54,3462.85 v -9.12 h 0.24 c 4.63,7.05 11.31,10.56 20.03,10.56 3.85,0 7.32,-0.8 10.44,-2.4 3.13,-1.6 5.33,-4.31 6.61,-8.16 2.08,3.36 4.82,5.95 8.22,7.8 3.4,1.85 7.14,2.76 11.21,2.76 3.12,0 5.95,-0.34 8.47,-1.01 2.52,-0.69 4.67,-1.75 6.48,-3.19 1.8,-1.44 3.19,-3.3 4.19,-5.58 1.01,-2.28 1.5,-5.02 1.5,-8.22 v -45.47 h -10.19 v 40.67 c 0,1.93 -0.17,3.72 -0.49,5.4 -0.31,1.68 -0.91,3.15 -1.79,4.38 -0.89,1.25 -2.11,2.22 -3.66,2.95 -1.56,0.72 -3.58,1.07 -6.06,1.07 -5.04,0 -9,-1.43 -11.88,-4.32 -2.88,-2.88 -4.32,-6.72 -4.32,-11.52 v -38.63 h -10.21 v 40.67 c 0,2 -0.18,3.84 -0.53,5.52 -0.36,1.68 -0.98,3.14 -1.86,4.38 -0.89,1.24 -2.06,2.2 -3.54,2.88 -1.49,0.69 -3.39,1.02 -5.7,1.02 -2.96,0 -5.5,-0.59 -7.62,-1.8 -2.13,-1.2 -3.85,-2.63 -5.16,-4.31 -1.32,-1.68 -2.28,-3.42 -2.88,-5.23 -0.61,-1.8 -0.9,-3.3 -0.9,-4.5 v -38.63 h -10.2 v 62.03 h 9.6"
         style="fill:#176fc1;fill-opacity:1;fill-rule:nonzero;stroke:none"
         id="path42" /><path
         d="m 1501.65,3430.76 c -2.08,-0.45 -4.25,-0.8 -6.53,-1.08 -2.28,-0.29 -4.59,-0.6 -6.91,-0.97 -2.32,-0.35 -4.4,-0.94 -6.23,-1.74 -1.85,-0.8 -3.35,-1.93 -4.51,-3.42 -1.16,-1.48 -1.73,-3.49 -1.73,-6.05 0,-1.68 0.33,-3.11 1.01,-4.26 0.68,-1.17 1.56,-2.11 2.64,-2.83 1.08,-0.71 2.36,-1.23 3.85,-1.55 1.48,-0.33 2.97,-0.48 4.49,-0.48 3.36,0 6.24,0.45 8.65,1.37 2.39,0.92 4.35,2.08 5.87,3.49 1.52,1.39 2.65,2.91 3.36,4.55 0.72,1.64 1.08,3.18 1.08,4.63 v 10.43 c -1.28,-0.96 -2.96,-1.66 -5.04,-2.09 z m 14.29,-31.27 c -2.65,0 -4.74,0.74 -6.31,2.23 -1.55,1.47 -2.34,3.89 -2.34,7.25 -2.8,-3.36 -6.06,-5.78 -9.78,-7.25 -3.72,-1.49 -7.74,-2.23 -12.06,-2.23 -2.79,0 -5.44,0.3 -7.92,0.9 -2.48,0.6 -4.66,1.6 -6.53,3.01 -1.88,1.39 -3.36,3.19 -4.44,5.39 -1.09,2.2 -1.62,4.86 -1.62,7.98 0,3.52 0.6,6.4 1.79,8.64 1.2,2.24 2.78,4.06 4.74,5.47 1.96,1.39 4.2,2.46 6.72,3.18 2.52,0.71 5.1,1.31 7.75,1.8 2.79,0.55 5.46,0.97 7.98,1.25 2.51,0.28 4.74,0.68 6.66,1.21 1.91,0.51 3.43,1.27 4.56,2.27 1.11,1.01 1.68,2.46 1.68,4.39 0,2.22 -0.42,4.03 -1.26,5.39 -0.84,1.37 -1.93,2.4 -3.25,3.12 -1.31,0.73 -2.8,1.21 -4.44,1.45 -1.64,0.23 -3.26,0.35 -4.85,0.35 -4.32,0 -7.92,-0.82 -10.8,-2.46 -2.89,-1.64 -4.45,-4.74 -4.69,-9.3 h -10.2 c 0.16,3.84 0.96,7.08 2.41,9.73 1.44,2.64 3.35,4.78 5.75,6.42 2.4,1.63 5.16,2.82 8.28,3.54 3.12,0.71 6.4,1.07 9.84,1.07 2.81,0 5.58,-0.19 8.34,-0.6 2.77,-0.39 5.27,-1.21 7.5,-2.46 2.24,-1.23 4.05,-2.98 5.4,-5.22 1.36,-2.24 2.04,-5.15 2.04,-8.76 v -31.92 c 0,-2.4 0.15,-4.16 0.42,-5.27 0.28,-1.13 1.23,-1.68 2.83,-1.68 0.88,0 1.91,0.19 3.12,0.59 v -7.92 c -1.77,-1.03 -4.2,-1.56 -7.32,-1.56"
         style="fill:#176fc1;fill-opacity:1;fill-rule:nonzero;stroke:none"
         id="path44" /><path
         d="m 1543.54,3486.49 v -85.67 h -10.21 v 85.67 h 10.21"
         style="fill:#176fc1;fill-opacity:1;fill-rule:nonzero;stroke:none"
         id="path46" /><path
         d="m 1570.17,3486.49 v -85.67 h -10.2 v 85.67 h 10.2"
         style="fill:#176fc1;fill-opacity:1;fill-rule:nonzero;stroke:none"
         id="path48" /><path
         d="m 1018.54,3309.86 v 9 h 10.44 v 9.23 c 0,5.04 1.46,8.86 4.38,11.46 2.92,2.6 7.18,3.9 12.78,3.9 0.96,0 2.06,-0.07 3.3,-0.23 1.24,-0.17 2.34,-0.41 3.3,-0.72 v -8.89 c -0.88,0.32 -1.84,0.55 -2.88,0.66 -1.04,0.12 -2,0.18 -2.88,0.18 -2.48,0 -4.4,-0.48 -5.76,-1.43 -1.36,-0.97 -2.04,-2.81 -2.04,-5.52 v -8.64 h 12 v -9 h -12 v -53.05 h -10.2 v 53.05 h -10.44"
         style="fill:#176fc1;fill-opacity:1;fill-rule:nonzero;stroke:none"
         id="path50" /><path
         d="m 1069.24,3277.75 c 0.99,-2.92 2.38,-5.35 4.14,-7.32 1.76,-1.96 3.82,-3.46 6.17,-4.5 2.36,-1.03 4.87,-1.56 7.5,-1.56 2.65,0 5.15,0.53 7.5,1.56 2.36,1.04 4.42,2.54 6.19,4.5 1.75,1.97 3.14,4.4 4.14,7.32 1,2.92 1.5,6.26 1.5,10.02 0,3.77 -0.5,7.1 -1.5,10.02 -1,2.93 -2.39,5.38 -4.14,7.38 -1.77,2 -3.83,3.52 -6.19,4.56 -2.35,1.05 -4.85,1.57 -7.5,1.57 -2.63,0 -5.14,-0.52 -7.5,-1.57 -2.35,-1.04 -4.41,-2.56 -6.17,-4.56 -1.76,-2 -3.15,-4.45 -4.14,-7.38 -1,-2.92 -1.5,-6.25 -1.5,-10.02 0,-3.76 0.5,-7.1 1.5,-10.02 z m -10.38,22.8 c 1.28,3.96 3.19,7.4 5.76,10.33 2.56,2.91 5.72,5.21 9.48,6.89 3.76,1.68 8.08,2.52 12.95,2.52 4.97,0 9.31,-0.84 13.03,-2.52 3.72,-1.68 6.85,-3.98 9.42,-6.89 2.55,-2.93 4.47,-6.37 5.76,-10.33 1.28,-3.95 1.92,-8.22 1.92,-12.78 0,-4.55 -0.64,-8.8 -1.92,-12.71 -1.29,-3.93 -3.21,-7.35 -5.76,-10.27 -2.57,-2.92 -5.7,-5.2 -9.42,-6.84 -3.72,-1.63 -8.06,-2.45 -13.03,-2.45 -4.87,0 -9.19,0.82 -12.95,2.45 -3.76,1.64 -6.92,3.92 -9.48,6.84 -2.57,2.92 -4.48,6.34 -5.76,10.27 -1.28,3.91 -1.92,8.16 -1.92,12.71 0,4.56 0.64,8.83 1.92,12.78"
         style="fill:#176fc1;fill-opacity:1;fill-rule:nonzero;stroke:none"
         id="path52" /><path
         d="m 1138.42,3318.86 v -13.08 h 0.24 c 2.48,5.04 5.52,8.75 9.12,11.15 3.6,2.4 8.16,3.52 13.68,3.36 v -10.8 c -4.08,0 -7.56,-0.56 -10.44,-1.68 -2.88,-1.11 -5.21,-2.75 -6.96,-4.92 -1.76,-2.15 -3.05,-4.78 -3.84,-7.85 -0.8,-3.09 -1.2,-6.62 -1.2,-10.63 v -27.6 h -10.2 v 62.05 h 9.6"
         style="fill:#176fc1;fill-opacity:1;fill-rule:nonzero;stroke:none"
         id="path54" /><path
         d="m 1227.33,3256.81 v 60.96 h -22.08 v 8.16 c 2.88,0 5.68,0.22 8.4,0.67 2.72,0.43 5.18,1.25 7.38,2.46 2.2,1.19 4.06,2.83 5.59,4.91 1.51,2.08 2.55,4.72 3.12,7.92 h 7.79 v -85.08 h -10.2"
         style="fill:#176fc1;fill-opacity:1;fill-rule:nonzero;stroke:none"
         id="path56" /><path
         d="m 1288.29,3301.03 c -2.15,-0.99 -3.99,-2.36 -5.51,-4.08 -1.52,-1.72 -2.66,-3.76 -3.42,-6.11 -0.76,-2.37 -1.14,-4.87 -1.14,-7.5 0,-2.64 0.4,-5.12 1.2,-7.44 0.79,-2.33 1.94,-4.32 3.42,-6 1.48,-1.68 3.32,-3.03 5.52,-4.02 2.2,-1.01 4.7,-1.51 7.5,-1.51 2.8,0 5.26,0.5 7.38,1.51 2.12,0.99 3.9,2.38 5.34,4.14 1.44,1.75 2.54,3.78 3.3,6.05 0.76,2.29 1.14,4.67 1.14,7.15 0,2.64 -0.34,5.14 -1.02,7.5 -0.68,2.35 -1.74,4.39 -3.18,6.11 -1.44,1.72 -3.24,3.11 -5.4,4.14 -2.16,1.04 -4.68,1.57 -7.56,1.57 -2.88,0 -5.4,-0.51 -7.57,-1.51 z m 18.49,28.38 c -2.48,2.33 -5.76,3.48 -9.84,3.48 -4.32,0 -7.81,-1.06 -10.44,-3.18 -2.64,-2.12 -4.7,-4.79 -6.18,-8.03 -1.48,-3.25 -2.5,-6.74 -3.07,-10.51 -0.55,-3.75 -0.87,-7.28 -0.95,-10.56 l 0.24,-0.24 c 2.4,3.92 5.38,6.76 8.94,8.52 3.56,1.76 7.66,2.65 12.3,2.65 4.08,0 7.74,-0.7 10.98,-2.11 3.24,-1.39 5.96,-3.34 8.16,-5.82 2.2,-2.48 3.9,-5.39 5.1,-8.75 1.2,-3.37 1.8,-7.01 1.8,-10.93 0,-3.11 -0.48,-6.35 -1.44,-9.71 -0.96,-3.36 -2.54,-6.43 -4.74,-9.18 -2.21,-2.77 -5.12,-5.04 -8.76,-6.84 -3.64,-1.81 -8.14,-2.7 -13.51,-2.7 -6.31,0 -11.39,1.27 -15.23,3.83 -3.84,2.56 -6.8,5.84 -8.88,9.85 -2.09,3.99 -3.46,8.4 -4.14,13.2 -0.69,4.8 -1.02,9.43 -1.02,13.92 0,5.83 0.5,11.49 1.5,16.98 1,5.47 2.7,10.33 5.1,14.57 2.4,4.24 5.59,7.64 9.6,10.2 4,2.56 9.04,3.84 15.12,3.84 7.04,0 12.64,-1.85 16.8,-5.57 4.16,-3.73 6.56,-9.11 7.2,-16.15 h -10.21 c -0.47,3.85 -1.95,6.92 -4.43,9.24"
         style="fill:#176fc1;fill-opacity:1;fill-rule:nonzero;stroke:none"
         id="path58" /><path
         d="m 1383.16,3296.83 c -0.76,2.76 -1.93,5.22 -3.48,7.39 -1.57,2.16 -3.56,3.87 -6,5.15 -2.45,1.28 -5.31,1.93 -8.58,1.93 -3.45,0 -6.37,-0.69 -8.76,-2.05 -2.41,-1.36 -4.36,-3.14 -5.88,-5.34 -1.53,-2.19 -2.62,-4.69 -3.3,-7.5 -0.69,-2.8 -1.02,-5.63 -1.02,-8.52 0,-3.04 0.36,-5.98 1.08,-8.81 0.71,-2.85 1.86,-5.35 3.41,-7.5 1.57,-2.17 3.58,-3.91 6.07,-5.22 2.47,-1.32 5.48,-1.99 9,-1.99 3.51,0 6.46,0.69 8.82,2.04 2.36,1.36 4.25,3.16 5.69,5.4 1.44,2.24 2.49,4.81 3.12,7.68 0.64,2.89 0.97,5.84 0.97,8.89 0,2.87 -0.38,5.7 -1.14,8.45 z m -36.66,22.03 v -8.41 h 0.24 c 1.68,3.44 4.31,5.94 7.92,7.5 3.6,1.56 7.56,2.34 11.88,2.34 4.8,0 8.98,-0.88 12.54,-2.64 3.56,-1.75 6.51,-4.14 8.88,-7.13 2.36,-3 4.13,-6.47 5.33,-10.39 1.21,-3.92 1.81,-8.08 1.81,-12.48 0,-4.39 -0.58,-8.55 -1.75,-12.48 -1.15,-3.92 -2.92,-7.34 -5.27,-10.25 -2.36,-2.93 -5.33,-5.22 -8.88,-6.9 -3.57,-1.68 -7.71,-2.52 -12.42,-2.52 -1.53,0 -3.23,0.16 -5.11,0.47 -1.88,0.33 -3.74,0.84 -5.57,1.57 -1.84,0.72 -3.59,1.7 -5.22,2.94 -1.64,1.24 -3.02,2.78 -4.14,4.61 h -0.24 v -31.91 h -10.2 v 85.68 h 10.2"
         style="fill:#176fc1;fill-opacity:1;fill-rule:nonzero;stroke:none"
         id="path60" /><path
         d="m 1402.17,3318.86 h 13.08 l 14.88,-21.72 15.48,21.72 h 12.25 l -21.37,-28.57 24,-33.48 h -13.08 l -17.28,25.69 -17.27,-25.69 h -12.37 l 23.28,32.64 -21.6,29.41"
         style="fill:#176fc1;fill-opacity:1;fill-rule:nonzero;stroke:none"
         id="path62" /><path
         d="m 1502.25,3294.98 v -9.61 h -34.68 v 9.61 h 34.68"
         style="fill:#176fc1;fill-opacity:1;fill-rule:nonzero;stroke:none"
         id="path64" /><path
         d="m 1540.77,3256.81 v 60.96 h -22.08 v 8.16 c 2.88,0 5.68,0.22 8.4,0.67 2.72,0.43 5.18,1.25 7.38,2.46 2.2,1.19 4.06,2.83 5.58,4.91 1.52,2.08 2.56,4.72 3.12,7.92 h 7.8 v -85.08 h -10.2"
         style="fill:#176fc1;fill-opacity:1;fill-rule:nonzero;stroke:none"
         id="path66" /><path
         d="m 1581.57,3323.77 c 1.12,3.69 2.86,6.86 5.22,9.55 2.36,2.67 5.3,4.77 8.82,6.29 3.52,1.52 7.52,2.28 12,2.28 3.68,0 7.14,-0.53 10.38,-1.62 3.24,-1.07 6.06,-2.64 8.46,-4.68 2.4,-2.04 4.3,-4.58 5.7,-7.61 1.4,-3.04 2.1,-6.57 2.1,-10.56 0,-3.77 -0.58,-7.09 -1.74,-9.96 -1.16,-2.89 -2.7,-5.47 -4.62,-7.75 -1.92,-2.27 -4.12,-4.34 -6.6,-6.18 -2.48,-1.83 -5.04,-3.59 -7.68,-5.27 -2.64,-1.6 -5.28,-3.18 -7.92,-4.75 -2.64,-1.56 -5.06,-3.22 -7.26,-4.98 -2.2,-1.76 -4.08,-3.65 -5.64,-5.7 -1.56,-2.03 -2.58,-4.38 -3.06,-7.01 h 43.68 v -9.01 h -55.56 c 0.4,5.04 1.3,9.34 2.7,12.9 1.4,3.57 3.18,6.67 5.34,9.31 2.16,2.64 4.6,4.95 7.32,6.95 2.72,2 5.56,3.88 8.52,5.65 3.6,2.24 6.76,4.3 9.48,6.17 2.72,1.88 4.98,3.79 6.78,5.7 1.8,1.92 3.16,4.01 4.08,6.24 0.92,2.24 1.38,4.84 1.38,7.81 0,2.31 -0.44,4.41 -1.32,6.3 -0.88,1.87 -2.06,3.49 -3.54,4.85 -1.48,1.37 -3.22,2.4 -5.22,3.12 -2,0.73 -4.12,1.08 -6.36,1.08 -2.96,0 -5.5,-0.62 -7.62,-1.86 -2.12,-1.24 -3.86,-2.86 -5.22,-4.86 -1.36,-1.99 -2.34,-4.26 -2.94,-6.78 -0.6,-2.52 -0.86,-5.06 -0.78,-7.62 h -10.2 c -0.24,4.32 0.2,8.32 1.32,12"
         style="fill:#176fc1;fill-opacity:1;fill-rule:nonzero;stroke:none"
         id="path68" /><path
         d="m 1657.83,3287.95 c 0.2,-3.96 0.85,-7.68 1.92,-11.16 1.08,-3.47 2.82,-6.42 5.22,-8.81 2.4,-2.41 5.76,-3.61 10.08,-3.61 4.33,0 7.68,1.2 10.09,3.61 2.39,2.39 4.13,5.34 5.22,8.81 1.07,3.48 1.71,7.2 1.91,11.16 0.2,3.96 0.3,7.55 0.3,10.74 0,2.09 -0.02,4.38 -0.06,6.9 -0.04,2.52 -0.24,5.04 -0.6,7.56 -0.36,2.53 -0.87,4.98 -1.55,7.39 -0.69,2.39 -1.68,4.5 -3.01,6.29 -1.31,1.8 -2.97,3.26 -4.98,4.38 -2,1.12 -4.44,1.68 -7.32,1.68 -2.88,0 -5.32,-0.56 -7.32,-1.68 -2,-1.12 -3.66,-2.58 -4.98,-4.38 -1.32,-1.79 -2.32,-3.9 -3,-6.29 -0.68,-2.41 -1.2,-4.86 -1.56,-7.39 -0.36,-2.52 -0.56,-5.04 -0.6,-7.56 -0.04,-2.52 -0.06,-4.81 -0.06,-6.9 0,-3.19 0.1,-6.78 0.3,-10.74 z m -10.86,20.35 c 0.16,3.36 0.56,6.64 1.2,9.83 0.64,3.2 1.57,6.24 2.76,9.12 1.2,2.88 2.84,5.4 4.92,7.56 2.08,2.16 4.7,3.88 7.86,5.17 3.17,1.27 6.94,1.91 11.34,1.91 4.4,0 8.18,-0.64 11.35,-1.91 3.15,-1.29 5.77,-3.01 7.85,-5.17 2.08,-2.16 3.72,-4.68 4.92,-7.56 1.2,-2.88 2.12,-5.92 2.76,-9.12 0.64,-3.19 1.04,-6.47 1.2,-9.83 0.16,-3.36 0.24,-6.6 0.24,-9.73 0,-3.12 -0.08,-6.36 -0.24,-9.71 -0.16,-3.36 -0.56,-6.65 -1.2,-9.84 -0.64,-3.2 -1.56,-6.23 -2.76,-9.06 -1.2,-2.85 -2.84,-5.35 -4.92,-7.5 -2.08,-2.17 -4.68,-3.87 -7.8,-5.1 -3.12,-1.25 -6.91,-1.86 -11.4,-1.86 -4.4,0 -8.17,0.61 -11.34,1.86 -3.16,1.23 -5.78,2.93 -7.86,5.1 -2.08,2.15 -3.72,4.65 -4.92,7.5 -1.19,2.83 -2.12,5.86 -2.76,9.06 -0.64,3.19 -1.04,6.48 -1.2,9.84 -0.16,3.35 -0.24,6.59 -0.24,9.71 0,3.13 0.08,6.37 0.24,9.73"
         style="fill:#176fc1;fill-opacity:1;fill-rule:nonzero;stroke:none"
         id="path70" /><path
         d="m 1763.31,3296.83 c -0.76,2.76 -1.92,5.22 -3.48,7.39 -1.56,2.16 -3.56,3.87 -6,5.15 -2.44,1.28 -5.3,1.93 -8.58,1.93 -3.44,0 -6.36,-0.69 -8.76,-2.05 -2.4,-1.36 -4.36,-3.14 -5.88,-5.34 -1.52,-2.19 -2.62,-4.69 -3.3,-7.5 -0.68,-2.8 -1.02,-5.63 -1.02,-8.52 0,-3.04 0.36,-5.98 1.08,-8.81 0.72,-2.85 1.86,-5.35 3.42,-7.5 1.56,-2.17 3.58,-3.91 6.07,-5.22 2.47,-1.32 5.47,-1.99 8.99,-1.99 3.52,0 6.46,0.69 8.82,2.04 2.36,1.36 4.26,3.16 5.7,5.4 1.44,2.24 2.48,4.81 3.12,7.68 0.64,2.89 0.96,5.84 0.96,8.89 0,2.87 -0.38,5.7 -1.14,8.45 z m -36.66,22.03 v -8.41 h 0.24 c 1.68,3.44 4.32,5.94 7.92,7.5 3.6,1.56 7.56,2.34 11.88,2.34 4.8,0 8.98,-0.88 12.54,-2.64 3.56,-1.75 6.52,-4.14 8.88,-7.13 2.36,-3 4.14,-6.47 5.34,-10.39 1.2,-3.92 1.8,-8.08 1.8,-12.48 0,-4.39 -0.58,-8.55 -1.74,-12.48 -1.16,-3.92 -2.92,-7.34 -5.28,-10.25 -2.36,-2.93 -5.32,-5.22 -8.87,-6.9 -3.57,-1.68 -7.71,-2.52 -12.43,-2.52 -1.52,0 -3.22,0.16 -5.1,0.47 -1.88,0.33 -3.74,0.84 -5.58,1.57 -1.84,0.72 -3.58,1.7 -5.21,2.94 -1.65,1.24 -3.03,2.78 -4.15,4.61 h -0.24 v -31.91 h -10.2 v 85.68 h 10.2"
         style="fill:#176fc1;fill-opacity:1;fill-rule:nonzero;stroke:none"
         id="path72" /><path
         d="m 1782.33,3318.86 h 13.08 l 14.88,-21.72 15.48,21.72 h 12.24 l -21.36,-28.57 24,-33.48 h -13.08 l -17.28,25.69 -17.28,-25.69 h -12.36 l 23.28,32.64 -21.6,29.41"
         style="fill:#176fc1;fill-opacity:1;fill-rule:nonzero;stroke:none"
         id="path74" /><path
         d="m 3356.33,3486.5 v -76.07 h 45.36 v -9.61 h -56.75 v 85.68 h 11.39"
         style="fill:#176fc1;fill-opacity:1;fill-rule:nonzero;stroke:none"
         id="path76" /><path
         d="m 3443.33,3430.76 c -2.09,-0.44 -4.25,-0.8 -6.54,-1.08 -2.28,-0.28 -4.59,-0.6 -6.9,-0.95 -2.32,-0.37 -4.41,-0.95 -6.24,-1.74 -1.84,-0.8 -3.34,-1.95 -4.5,-3.43 -1.17,-1.47 -1.73,-3.5 -1.73,-6.06 0,-1.68 0.33,-3.1 1.01,-4.26 0.68,-1.15 1.56,-2.09 2.64,-2.81 1.07,-0.73 2.36,-1.25 3.85,-1.57 1.47,-0.32 2.96,-0.48 4.49,-0.48 3.36,0 6.24,0.46 8.64,1.38 2.39,0.92 4.36,2.08 5.88,3.48 1.51,1.41 2.65,2.93 3.36,4.57 0.71,1.63 1.08,3.17 1.08,4.61 v 10.45 c -1.29,-0.97 -2.97,-1.66 -5.04,-2.11 z m 14.28,-31.25 c -2.64,0 -4.74,0.73 -6.31,2.21 -1.55,1.48 -2.33,3.9 -2.33,7.26 -2.8,-3.36 -6.07,-5.78 -9.78,-7.26 -3.73,-1.48 -7.74,-2.21 -12.07,-2.21 -2.79,0 -5.43,0.29 -7.91,0.9 -2.48,0.59 -4.67,1.6 -6.54,2.99 -1.88,1.4 -3.36,3.2 -4.43,5.41 -1.1,2.19 -1.62,4.86 -1.62,7.98 0,3.51 0.59,6.39 1.79,8.64 1.19,2.23 2.78,4.05 4.74,5.45 1.96,1.4 4.2,2.46 6.72,3.18 2.52,0.72 5.1,1.33 7.74,1.8 2.79,0.56 5.46,0.98 7.98,1.27 2.52,0.27 4.74,0.67 6.66,1.19 1.92,0.52 3.44,1.29 4.56,2.28 1.11,1 1.68,2.46 1.68,4.38 0,2.24 -0.42,4.04 -1.26,5.41 -0.84,1.35 -1.92,2.39 -3.24,3.11 -1.32,0.72 -2.8,1.2 -4.45,1.44 -1.64,0.24 -3.26,0.37 -4.85,0.37 -4.32,0 -7.92,-0.83 -10.8,-2.46 -2.88,-1.64 -4.44,-4.75 -4.68,-9.31 h -10.2 c 0.16,3.84 0.96,7.08 2.4,9.72 1.44,2.64 3.36,4.78 5.75,6.42 2.4,1.65 5.17,2.82 8.28,3.54 3.13,0.72 6.41,1.08 9.85,1.08 2.8,0 5.58,-0.2 8.34,-0.59 2.76,-0.41 5.26,-1.23 7.5,-2.46 2.24,-1.25 4.04,-2.99 5.4,-5.23 1.35,-2.23 2.04,-5.16 2.04,-8.76 v -31.91 c 0,-2.4 0.14,-4.16 0.42,-5.29 0.28,-1.12 1.22,-1.68 2.82,-1.68 0.88,0 1.91,0.2 3.13,0.6 v -7.92 c -1.77,-1.04 -4.2,-1.55 -7.33,-1.55"
         style="fill:#176fc1;fill-opacity:1;fill-rule:nonzero;stroke:none"
         id="path78" /><path
         d="m 3483.65,3462.87 v -13.09 h 0.23 c 2.48,5.04 5.53,8.76 9.12,11.17 3.61,2.39 8.17,3.51 13.69,3.35 v -10.8 c -4.08,0 -7.56,-0.55 -10.45,-1.68 -2.87,-1.12 -5.19,-2.76 -6.95,-4.92 -1.76,-2.16 -3.05,-4.77 -3.85,-7.86 -0.8,-3.08 -1.19,-6.62 -1.19,-10.62 v -27.6 h -10.2 v 62.05 h 9.6"
         style="fill:#176fc1;fill-opacity:1;fill-rule:nonzero;stroke:none"
         id="path80" /><path
         d="m 3544.54,3411.21 c 2.37,1.38 4.26,3.23 5.71,5.51 1.44,2.28 2.5,4.86 3.18,7.74 0.68,2.88 1.02,5.76 1.02,8.64 0,2.72 -0.32,5.4 -0.96,8.05 -0.64,2.64 -1.66,5.02 -3.07,7.13 -1.39,2.13 -3.22,3.83 -5.45,5.1 -2.24,1.29 -4.96,1.93 -8.16,1.93 -3.28,0 -6.08,-0.63 -8.4,-1.86 -2.32,-1.25 -4.22,-2.91 -5.7,-4.99 -1.49,-2.08 -2.56,-4.48 -3.24,-7.19 -0.69,-2.73 -1.02,-5.57 -1.02,-8.53 0,-2.8 0.27,-5.59 0.84,-8.4 0.56,-2.8 1.52,-5.34 2.87,-7.62 1.37,-2.28 3.17,-4.13 5.41,-5.51 2.24,-1.41 5.04,-2.11 8.4,-2.11 3.36,0 6.21,0.7 8.57,2.11 z m 13.03,-27.91 c -4.65,-5.04 -11.92,-7.56 -21.83,-7.56 -2.89,0 -5.82,0.32 -8.83,0.96 -3,0.64 -5.72,1.68 -8.17,3.12 -2.44,1.45 -4.45,3.32 -6.05,5.65 -1.6,2.32 -2.48,5.15 -2.64,8.51 h 10.2 c 0.08,-1.83 0.66,-3.4 1.74,-4.68 1.08,-1.28 2.4,-2.31 3.96,-3.11 1.56,-0.8 3.26,-1.39 5.1,-1.75 1.83,-0.36 3.59,-0.54 5.27,-0.54 3.37,0 6.21,0.59 8.53,1.74 2.31,1.16 4.25,2.76 5.76,4.81 1.51,2.03 2.62,4.49 3.3,7.38 0.67,2.87 1.03,6.03 1.03,9.47 v 4.08 h -0.25 c -1.77,-3.84 -4.42,-6.66 -7.98,-8.45 -3.56,-1.81 -7.34,-2.71 -11.34,-2.71 -4.64,0 -8.68,0.84 -12.11,2.52 -3.45,1.68 -6.33,3.94 -8.66,6.79 -2.31,2.83 -4.06,6.15 -5.21,9.96 -1.16,3.79 -1.74,7.81 -1.74,12.05 0,3.68 0.48,7.46 1.45,11.35 0.95,3.86 2.55,7.39 4.79,10.56 2.24,3.15 5.21,5.75 8.88,7.8 3.68,2.03 8.2,3.05 13.55,3.05 3.93,0 7.52,-0.87 10.8,-2.58 3.28,-1.72 5.84,-4.3 7.69,-7.74 h 0.13 v 8.89 h 9.59 v -56.77 c 0,-10.15 -2.33,-17.76 -6.96,-22.8"
         style="fill:#176fc1;fill-opacity:1;fill-rule:nonzero;stroke:none"
         id="path82" /><path
         d="m 3621.34,3444.63 c -0.92,2.16 -2.15,4.02 -3.71,5.57 -1.56,1.57 -3.41,2.8 -5.53,3.72 -2.12,0.92 -4.45,1.39 -7.01,1.39 -2.64,0 -5.03,-0.47 -7.15,-1.39 -2.12,-0.92 -3.94,-2.18 -5.46,-3.78 -1.51,-1.6 -2.72,-3.46 -3.6,-5.57 -0.88,-2.13 -1.4,-4.39 -1.55,-6.79 h 35.63 c -0.15,2.4 -0.7,4.68 -1.62,6.85 z m 2.46,-39.85 c -4.63,-3.51 -10.48,-5.27 -17.52,-5.27 -4.96,0 -9.25,0.8 -12.89,2.39 -3.65,1.6 -6.71,3.84 -9.18,6.72 -2.48,2.88 -4.34,6.32 -5.58,10.32 -1.24,4.01 -1.95,8.36 -2.1,13.09 0,4.71 0.71,9.03 2.16,12.95 1.44,3.92 3.45,7.32 6.05,10.2 2.6,2.88 5.68,5.12 9.25,6.72 3.55,1.6 7.45,2.4 11.7,2.4 5.52,0 10.1,-1.14 13.74,-3.42 3.63,-2.28 6.56,-5.18 8.76,-8.7 2.19,-3.52 3.72,-7.36 4.56,-11.52 0.84,-4.16 1.17,-8.12 1.01,-11.87 h -46.43 c -0.09,-2.73 0.24,-5.31 0.96,-7.75 0.72,-2.44 1.88,-4.6 3.48,-6.47 1.59,-1.89 3.63,-3.38 6.11,-4.51 2.49,-1.12 5.41,-1.68 8.76,-1.68 4.33,0 7.87,1 10.62,3 2.77,2 4.59,5.04 5.47,9.12 h 10.08 c -1.37,-6.96 -4.36,-12.2 -9.01,-15.72"
         style="fill:#176fc1;fill-opacity:1;fill-rule:nonzero;stroke:none"
         id="path84" /><path
         d="m 3653.57,3462.87 v -13.09 h 0.23 c 2.48,5.04 5.53,8.76 9.12,11.17 3.6,2.39 8.17,3.51 13.69,3.35 v -10.8 c -4.09,0 -7.56,-0.55 -10.44,-1.68 -2.88,-1.12 -5.21,-2.76 -6.97,-4.92 -1.75,-2.16 -3.03,-4.77 -3.83,-7.86 -0.81,-3.08 -1.2,-6.62 -1.2,-10.62 v -27.6 h -10.21 v 62.05 h 9.61"
         style="fill:#176fc1;fill-opacity:1;fill-rule:nonzero;stroke:none"
         id="path86" /><path
         d="m 3182.57,3309.86 v 9 h 10.44 v 9.24 c 0,5.04 1.46,8.87 4.39,11.47 2.91,2.6 7.16,3.89 12.77,3.89 0.96,0 2.06,-0.08 3.3,-0.24 1.24,-0.16 2.34,-0.39 3.3,-0.72 v -8.87 c -0.88,0.31 -1.83,0.53 -2.88,0.66 -1.04,0.11 -2,0.18 -2.88,0.18 -2.48,0 -4.39,-0.49 -5.76,-1.45 -1.36,-0.95 -2.03,-2.8 -2.03,-5.52 v -8.64 h 11.99 v -9 h -11.99 v -53.04 h -10.21 v 53.04 h -10.44"
         style="fill:#176fc1;fill-opacity:1;fill-rule:nonzero;stroke:none"
         id="path88" /><path
         d="m 3233.28,3277.77 c 0.99,-2.93 2.37,-5.37 4.14,-7.32 1.75,-1.97 3.8,-3.46 6.17,-4.5 2.36,-1.05 4.86,-1.57 7.5,-1.57 2.63,0 5.13,0.52 7.5,1.57 2.36,1.04 4.41,2.53 6.18,4.5 1.76,1.95 3.13,4.39 4.14,7.32 1.01,2.91 1.49,6.25 1.49,10.02 0,3.75 -0.48,7.09 -1.49,10.02 -1.01,2.91 -2.38,5.37 -4.14,7.37 -1.77,2 -3.82,3.53 -6.18,4.56 -2.37,1.04 -4.87,1.57 -7.5,1.57 -2.64,0 -5.14,-0.53 -7.5,-1.57 -2.37,-1.03 -4.42,-2.56 -6.17,-4.56 -1.77,-2 -3.15,-4.46 -4.14,-7.37 -1.01,-2.93 -1.51,-6.27 -1.51,-10.02 0,-3.77 0.5,-7.11 1.51,-10.02 z m -10.4,22.79 c 1.29,3.97 3.21,7.41 5.77,10.32 2.56,2.93 5.72,5.23 9.48,6.91 3.76,1.68 8.08,2.52 12.96,2.52 4.96,0 9.29,-0.84 13.03,-2.52 3.71,-1.68 6.85,-3.98 9.41,-6.91 2.56,-2.91 4.47,-6.35 5.76,-10.32 1.28,-3.96 1.92,-8.22 1.92,-12.77 0,-4.57 -0.64,-8.81 -1.92,-12.72 -1.29,-3.92 -3.2,-7.35 -5.76,-10.27 -2.56,-2.92 -5.7,-5.19 -9.41,-6.83 -3.74,-1.64 -8.07,-2.47 -13.03,-2.47 -4.88,0 -9.2,0.83 -12.96,2.47 -3.76,1.64 -6.92,3.91 -9.48,6.83 -2.56,2.92 -4.48,6.35 -5.77,10.27 -1.26,3.91 -1.91,8.15 -1.91,12.72 0,4.55 0.65,8.81 1.91,12.77"
         style="fill:#176fc1;fill-opacity:1;fill-rule:nonzero;stroke:none"
         id="path90" /><path
         d="m 3302.46,3318.86 v -13.08 h 0.23 c 2.48,5.04 5.53,8.77 9.12,11.17 3.59,2.39 8.16,3.52 13.68,3.36 v -10.8 c -4.08,0 -7.56,-0.57 -10.44,-1.68 -2.88,-1.13 -5.2,-2.76 -6.96,-4.92 -1.76,-2.17 -3.04,-4.79 -3.84,-7.87 -0.8,-3.07 -1.2,-6.61 -1.2,-10.62 v -27.6 h -10.2 v 62.04 h 9.61"
         style="fill:#176fc1;fill-opacity:1;fill-rule:nonzero;stroke:none"
         id="path92" /><path
         d="m 3391.36,3256.82 v 60.97 h -22.07 v 8.16 c 2.87,0 5.67,0.22 8.4,0.65 2.71,0.45 5.18,1.27 7.38,2.46 2.19,1.21 4.05,2.84 5.58,4.92 1.51,2.08 2.56,4.73 3.11,7.92 h 7.81 v -85.08 h -10.21"
         style="fill:#176fc1;fill-opacity:1;fill-rule:nonzero;stroke:none"
         id="path94" /><path
         d="m 3432.17,3323.79 c 1.12,3.67 2.86,6.85 5.23,9.53 2.35,2.68 5.29,4.78 8.81,6.31 3.52,1.51 7.51,2.27 12.01,2.27 3.67,0 7.13,-0.54 10.37,-1.61 3.24,-1.09 6.06,-2.65 8.45,-4.69 2.41,-2.04 4.31,-4.58 5.71,-7.61 1.4,-3.05 2.11,-6.57 2.11,-10.57 0,-3.75 -0.59,-7.07 -1.75,-9.96 -1.16,-2.87 -2.71,-5.45 -4.62,-7.74 -1.91,-2.28 -4.12,-4.33 -6.6,-6.18 -2.48,-1.84 -5.04,-3.6 -7.68,-5.28 -2.63,-1.6 -5.28,-3.17 -7.93,-4.74 -2.63,-1.55 -5.06,-3.22 -7.24,-4.98 -2.21,-1.75 -4.08,-3.66 -5.65,-5.69 -1.56,-2.05 -2.58,-4.39 -3.06,-7.03 h 43.69 v -9 h -55.57 c 0.4,5.04 1.3,9.35 2.7,12.9 1.4,3.56 3.18,6.66 5.34,9.3 2.16,2.64 4.6,4.96 7.32,6.96 2.72,2.01 5.56,3.88 8.52,5.64 3.6,2.24 6.77,4.31 9.48,6.19 2.72,1.87 4.98,3.77 6.78,5.69 1.79,1.93 3.16,4 4.08,6.24 0.92,2.25 1.39,4.85 1.39,7.8 0,2.32 -0.45,4.43 -1.33,6.3 -0.88,1.88 -2.06,3.5 -3.54,4.87 -1.48,1.35 -3.22,2.4 -5.22,3.11 -2,0.72 -4.12,1.09 -6.36,1.09 -2.97,0 -5.51,-0.63 -7.62,-1.87 -2.12,-1.24 -3.86,-2.86 -5.22,-4.85 -1.36,-2.01 -2.33,-4.27 -2.94,-6.79 -0.61,-2.52 -0.86,-5.06 -0.78,-7.61 h -10.2 c -0.24,4.32 0.2,8.32 1.32,12"
         style="fill:#176fc1;fill-opacity:1;fill-rule:nonzero;stroke:none"
         id="path96" /><path
         d="m 3508.43,3287.97 c 0.2,-3.97 0.84,-7.68 1.92,-11.17 1.08,-3.48 2.82,-6.41 5.22,-8.81 2.39,-2.41 5.75,-3.61 10.08,-3.61 4.32,0 7.68,1.2 10.09,3.61 2.39,2.4 4.13,5.33 5.21,8.81 1.08,3.49 1.72,7.2 1.92,11.17 0.19,3.95 0.3,7.53 0.3,10.74 0,2.07 -0.02,4.37 -0.06,6.89 -0.05,2.52 -0.24,5.04 -0.6,7.56 -0.37,2.52 -0.88,4.98 -1.56,7.38 -0.68,2.41 -1.68,4.5 -3.01,6.3 -1.31,1.81 -2.97,3.25 -4.98,4.39 -1.99,1.11 -4.43,1.68 -7.31,1.68 -2.88,0 -5.32,-0.57 -7.32,-1.68 -2.01,-1.14 -3.67,-2.58 -4.98,-4.39 -1.32,-1.8 -2.32,-3.89 -3,-6.3 -0.69,-2.4 -1.2,-4.86 -1.57,-7.38 -0.35,-2.52 -0.55,-5.04 -0.59,-7.56 -0.04,-2.52 -0.06,-4.82 -0.06,-6.89 0,-3.21 0.1,-6.79 0.3,-10.74 z m -10.86,20.33 c 0.16,3.36 0.56,6.64 1.19,9.84 0.65,3.2 1.57,6.24 2.77,9.12 1.2,2.88 2.84,5.4 4.92,7.56 2.08,2.17 4.7,3.89 7.86,5.16 3.16,1.29 6.93,1.92 11.34,1.92 4.4,0 8.17,-0.63 11.34,-1.92 3.16,-1.27 5.78,-2.99 7.86,-5.16 2.08,-2.16 3.72,-4.68 4.92,-7.56 1.2,-2.88 2.12,-5.92 2.76,-9.12 0.64,-3.2 1.04,-6.48 1.19,-9.84 0.17,-3.36 0.25,-6.6 0.25,-9.72 0,-3.11 -0.08,-6.36 -0.25,-9.72 -0.15,-3.36 -0.55,-6.64 -1.19,-9.84 -0.64,-3.2 -1.56,-6.22 -2.76,-9.06 -1.2,-2.83 -2.84,-5.33 -4.92,-7.5 -2.08,-2.15 -4.68,-3.86 -7.81,-5.1 -3.11,-1.23 -6.91,-1.86 -11.39,-1.86 -4.41,0 -8.18,0.63 -11.34,1.86 -3.16,1.24 -5.78,2.95 -7.86,5.1 -2.08,2.17 -3.72,4.67 -4.92,7.5 -1.2,2.84 -2.12,5.86 -2.77,9.06 -0.63,3.2 -1.03,6.48 -1.19,9.84 -0.16,3.36 -0.24,6.61 -0.24,9.72 0,3.12 0.08,6.36 0.24,9.72"
         style="fill:#176fc1;fill-opacity:1;fill-rule:nonzero;stroke:none"
         id="path98" /><path
         d="m 3613.91,3296.84 c -0.76,2.77 -1.92,5.23 -3.49,7.39 -1.56,2.15 -3.55,3.87 -5.99,5.15 -2.44,1.28 -5.31,1.93 -8.58,1.93 -3.44,0 -6.36,-0.69 -8.77,-2.04 -2.4,-1.36 -4.35,-3.14 -5.87,-5.35 -1.53,-2.2 -2.62,-4.7 -3.31,-7.5 -0.68,-2.8 -1.01,-5.64 -1.01,-8.51 0,-3.05 0.36,-5.99 1.07,-8.83 0.73,-2.83 1.87,-5.33 3.42,-7.5 1.56,-2.16 3.58,-3.9 6.08,-5.22 2.47,-1.32 5.46,-1.98 8.99,-1.98 3.51,0 6.45,0.68 8.82,2.04 2.36,1.36 4.26,3.17 5.7,5.4 1.44,2.24 2.48,4.8 3.12,7.69 0.63,2.87 0.96,5.84 0.96,8.87 0,2.89 -0.39,5.7 -1.14,8.46 z m -36.66,22.02 v -8.39 h 0.24 c 1.68,3.43 4.32,5.93 7.91,7.5 3.61,1.56 7.56,2.34 11.89,2.34 4.79,0 8.97,-0.89 12.54,-2.65 3.56,-1.76 6.51,-4.14 8.88,-7.14 2.36,-3 4.14,-6.46 5.34,-10.38 1.2,-3.91 1.8,-8.07 1.8,-12.48 0,-4.4 -0.58,-8.56 -1.74,-12.48 -1.17,-3.91 -2.92,-7.33 -5.29,-10.26 -2.35,-2.91 -5.31,-5.22 -8.86,-6.9 -3.58,-1.68 -7.72,-2.52 -12.43,-2.52 -1.52,0 -3.22,0.16 -5.1,0.48 -1.89,0.33 -3.74,0.84 -5.58,1.56 -1.84,0.72 -3.58,1.7 -5.22,2.95 -1.64,1.23 -3.02,2.77 -4.14,4.62 h -0.24 v -31.93 h -10.21 v 85.68 h 10.21"
         style="fill:#176fc1;fill-opacity:1;fill-rule:nonzero;stroke:none"
         id="path100" /><path
         d="m 3632.92,3318.86 h 13.09 l 14.87,-21.71 15.48,21.71 h 12.25 l -21.37,-28.55 24,-33.49 h -13.08 l -17.28,25.68 -17.27,-25.68 h -12.37 l 23.29,32.65 -21.61,29.39"
         style="fill:#176fc1;fill-opacity:1;fill-rule:nonzero;stroke:none"
         id="path102" /><path
         d="m 3791.93,3291.27 v -8.17 h -26.16 v -26.28 h -8.16 v 26.28 h -26.16 v 8.17 h 26.16 v 26.27 h 8.16 v -26.27 h 26.16"
         style="fill:#176fc1;fill-opacity:1;fill-rule:nonzero;stroke:none"
         id="path104" /><path
         d="m 1526.08,1685.45 c -89.94,0 -162.88,-72.93 -162.88,-162.9 0,-71.97 46.67,-133.02 111.4,-154.56 8.15,-1.5 11.12,3.53 11.12,7.85 0,3.87 -0.14,14.11 -0.22,27.7 -45.31,-9.84 -54.87,21.84 -54.87,21.84 -7.41,18.82 -18.09,23.83 -18.09,23.83 -14.79,10.1 1.12,9.9 1.12,9.9 16.35,-1.15 24.95,-16.79 24.95,-16.79 14.53,-24.89 38.13,-17.7 47.41,-13.53 1.48,10.52 5.69,17.7 10.34,21.77 -36.17,4.11 -74.2,18.09 -74.2,80.51 0,17.78 6.35,32.33 16.77,43.71 -1.68,4.12 -7.27,20.69 1.6,43.11 0,0 13.67,4.38 44.79,-16.7 12.99,3.62 26.93,5.42 40.78,5.49 13.84,-0.07 27.77,-1.87 40.78,-5.49 31.1,21.08 44.75,16.7 44.75,16.7 8.89,-22.42 3.3,-38.99 1.63,-43.11 10.44,-11.38 16.74,-25.93 16.74,-43.71 0,-62.58 -38.09,-76.35 -74.37,-80.38 5.84,-5.03 11.05,-14.97 11.05,-30.16 0,-21.78 -0.2,-39.35 -0.2,-44.69 0,-4.36 2.94,-9.43 11.2,-7.84 64.68,21.59 111.31,82.6 111.31,154.55 0,89.97 -72.94,162.9 -162.91,162.9"
         style="fill:#ffffff;fill-opacity:1;fill-rule:evenodd;stroke:none"
         id="path106" /><path
         d="m 3506.09,2175.54 c -333.47,0 -603.88,-270.35 -603.88,-603.87 0,-266.81 173.03,-493.17 412.97,-573.022 30.18,-5.589 41.26,13.102 41.26,29.052 0,14.4 -0.56,61.97 -0.82,112.43 -168,-36.53 -203.45,71.25 -203.45,71.25 -27.47,69.8 -67.05,88.36 -67.05,88.36 -54.79,37.48 4.13,36.71 4.13,36.71 60.64,-4.25 92.57,-62.23 92.57,-62.23 53.86,-92.32 141.27,-65.63 175.73,-50.2 5.42,39.02 21.07,65.68 38.34,80.75 -134.13,15.27 -275.13,67.05 -275.13,298.44 0,65.93 23.59,119.8 62.22,162.09 -6.27,15.22 -26.94,76.63 5.85,159.81 0,0 50.71,16.23 166.11,-61.9 48.17,13.38 99.83,20.09 151.15,20.32 51.32,-0.23 103.02,-6.94 151.28,-20.32 115.26,78.13 165.9,61.9 165.9,61.9 32.87,-83.18 12.19,-144.59 5.92,-159.81 38.72,-42.29 62.15,-96.16 62.15,-162.09 0,-231.94 -141.27,-283.01 -275.74,-297.96 21.66,-18.74 40.96,-55.49 40.96,-111.83 0,-80.79 -0.7,-145.82 -0.7,-165.72 0,-16.07 10.87,-34.899 41.48,-28.97 239.81,79.94 412.62,306.22 412.62,572.94 0,333.52 -270.37,603.87 -603.87,603.87"
         style="fill:#ffffff;fill-opacity:1;fill-rule:evenodd;stroke:none"
         id="path108" /><path
         d="m 3130.93,1308.51 c -1.33,-3.01 -6.05,-3.9 -10.35,-1.84 -4.38,1.97 -6.84,6.06 -5.42,9.07 1.3,3.09 6.03,3.94 10.4,1.89 4.39,-1.98 6.89,-6.11 5.37,-9.12 v 0"
         style="fill:#ffffff;fill-opacity:1;fill-rule:nonzero;stroke:none"
         id="path110" /><path
         d="m 3155.39,1281.23 c -2.88,-2.67 -8.51,-1.43 -12.33,2.79 -3.95,4.21 -4.69,9.84 -1.77,12.55 2.97,2.67 8.43,1.42 12.39,-2.79 3.95,-4.26 4.72,-9.85 1.71,-12.55 v 0"
         style="fill:#ffffff;fill-opacity:1;fill-rule:nonzero;stroke:none"
         id="path112" /><path
         d="m 3179.2,1246.45 c -3.7,-2.57 -9.75,-0.16 -13.49,5.21 -3.7,5.37 -3.7,11.81 0.08,14.39 3.75,2.58 9.71,0.26 13.5,-5.07 3.69,-5.45 3.69,-11.9 -0.09,-14.53 v 0"
         style="fill:#ffffff;fill-opacity:1;fill-rule:nonzero;stroke:none"
         id="path114" /><path
         d="m 3211.82,1212.85 c -3.31,-3.65 -10.36,-2.67 -15.52,2.31 -5.28,4.87 -6.75,11.78 -3.43,15.43 3.35,3.66 10.44,2.63 15.64,-2.31 5.24,-4.86 6.84,-11.82 3.31,-15.43 v 0"
         style="fill:#ffffff;fill-opacity:1;fill-rule:nonzero;stroke:none"
         id="path116" /><path
         d="m 3256.82,1193.34 c -1.46,-4.73 -8.25,-6.88 -15.09,-4.87 -6.83,2.07 -11.3,7.61 -9.92,12.39 1.42,4.76 8.24,7 15.13,4.85 6.82,-2.06 11.3,-7.56 9.88,-12.37 v 0"
         style="fill:#ffffff;fill-opacity:1;fill-rule:nonzero;stroke:none"
         id="path118" /><path
         d="m 3306.24,1189.72 c 0.17,-4.98 -5.63,-9.11 -12.81,-9.19 -7.22,-0.17 -13.06,3.86 -13.14,8.76 0,5.03 5.67,9.12 12.89,9.24 7.18,0.14 13.06,-3.86 13.06,-8.81 v 0"
         style="fill:#ffffff;fill-opacity:1;fill-rule:nonzero;stroke:none"
         id="path120" /><path
         d="m 3352.23,1197.55 c 0.86,-4.86 -4.13,-9.85 -11.26,-11.17 -7.01,-1.29 -13.5,1.71 -14.39,6.53 -0.87,4.98 4.21,9.97 11.21,11.26 7.14,1.24 13.53,-1.68 14.44,-6.62 v 0"
         style="fill:#ffffff;fill-opacity:1;fill-rule:nonzero;stroke:none"
         id="path122" /><path
         d="m 2248.98,2234.88 v -5"
         style="fill:none;stroke:#3a7fc3;stroke-width:10;stroke-linecap:round;stroke-linejoin:miter;stroke-miterlimit:10;stroke-dasharray:none;stroke-opacity:1"
         id="path124" /><path
         d="M 2248.98,2209.88 V 869.949"
         style="fill:none;stroke:#3a7fc3;stroke-width:10;stroke-linecap:round;stroke-linejoin:miter;stroke-miterlimit:10;stroke-dasharray:9.9995, 19.999;stroke-dashoffset:0;stroke-opacity:1"
         id="path126" /><path
         d="m 2248.98,859.949 v -5"
         style="fill:none;stroke:#3a7fc3;stroke-width:10;stroke-linecap:round;stroke-linejoin:miter;stroke-miterlimit:10;stroke-dasharray:none;stroke-opacity:1"
         id="path128" /><path
         d="m 1332.76,714.789 c -3.81,2.77 -8.66,4.141 -14.58,4.141 -2.4,0 -4.76,-0.239 -7.08,-0.711 -2.33,-0.489 -4.38,-1.289 -6.18,-2.399 -1.8,-1.14 -3.24,-2.629 -4.33,-4.511 -1.07,-1.879 -1.61,-4.219 -1.61,-7.02 0,-2.629 0.77,-4.777 2.34,-6.418 1.55,-1.641 3.64,-2.98 6.24,-4.019 2.6,-1.043 5.53,-1.903 8.82,-2.582 3.28,-0.68 6.62,-1.418 10.02,-2.211 3.4,-0.797 6.73,-1.75 10.02,-2.829 3.28,-1.082 6.22,-2.539 8.82,-4.378 2.6,-1.832 4.68,-4.161 6.24,-6.954 1.56,-2.808 2.34,-6.328 2.34,-10.566 0,-4.562 -1.02,-8.453 -3.06,-11.703 -2.05,-3.238 -4.66,-5.879 -7.86,-7.918 -3.2,-2.039 -6.78,-3.52 -10.74,-4.441 -3.96,-0.918 -7.9,-1.379 -11.82,-1.379 -4.8,0 -9.34,0.597 -13.62,1.8 -4.28,1.2 -8.04,3.02 -11.28,5.457 -3.24,2.442 -5.8,5.571 -7.68,9.372 -1.88,3.789 -2.82,8.289 -2.82,13.492 h 10.8 c 0,-3.602 0.69,-6.703 2.1,-9.301 1.4,-2.602 3.24,-4.731 5.52,-6.41 2.28,-1.68 4.93,-2.93 7.98,-3.731 3.04,-0.8 6.15,-1.191 9.36,-1.191 2.56,0 5.14,0.23 7.74,0.723 2.6,0.468 4.94,1.289 7.02,2.457 2.08,1.152 3.76,2.73 5.04,4.73 1.28,2.012 1.92,4.57 1.92,7.68 0,2.961 -0.79,5.363 -2.34,7.203 -1.56,1.828 -3.65,3.34 -6.24,4.5 -2.61,1.16 -5.55,2.098 -8.82,2.816 -3.28,0.731 -6.62,1.473 -10.02,2.231 -3.4,0.75 -6.74,1.633 -10.02,2.64 -3.28,0.993 -6.23,2.313 -8.82,3.95 -2.6,1.64 -4.68,3.761 -6.24,6.363 -1.56,2.598 -2.34,5.859 -2.34,9.789 0,4.309 0.88,8.051 2.64,11.211 1.76,3.16 4.1,5.758 7.02,7.808 2.92,2.032 6.24,3.551 9.96,4.551 3.72,1 7.54,1.5 11.46,1.5 4.4,0 8.48,-0.531 12.24,-1.562 3.76,-1.039 7.06,-2.68 9.89,-4.918 2.85,-2.242 5.09,-5.063 6.73,-8.461 1.63,-3.399 2.54,-7.461 2.7,-12.18 h -10.8 c -0.65,6.168 -2.86,10.621 -6.66,13.379"
         style="fill:#176fc1;fill-opacity:1;fill-rule:nonzero;stroke:none"
         id="path130" /><path
         d="m 1375.54,702.852 v -9.122 h 0.24 c 4.63,7.051 11.31,10.559 20.03,10.559 3.85,0 7.32,-0.801 10.44,-2.398 3.13,-1.602 5.33,-4.313 6.61,-8.161 2.08,3.36 4.82,5.95 8.22,7.801 3.4,1.848 7.14,2.758 11.21,2.758 3.12,0 5.95,-0.34 8.47,-1.008 2.52,-0.679 4.67,-1.75 6.48,-3.179 1.8,-1.454 3.19,-3.313 4.19,-5.59 1.01,-2.282 1.5,-5.024 1.5,-8.223 V 640.82 h -10.19 v 40.672 c 0,1.93 -0.17,3.719 -0.49,5.399 -0.31,1.679 -0.91,3.148 -1.79,4.379 -0.89,1.25 -2.11,2.218 -3.66,2.949 -1.56,0.722 -3.58,1.07 -6.06,1.07 -5.04,0 -9,-1.437 -11.88,-4.32 -2.88,-2.879 -4.32,-6.719 -4.32,-11.52 V 640.82 h -10.21 v 40.672 c 0,1.996 -0.18,3.84 -0.53,5.52 -0.36,1.679 -0.98,3.136 -1.86,4.379 -0.89,1.238 -2.06,2.199 -3.54,2.89 -1.49,0.68 -3.39,1.008 -5.7,1.008 -2.96,0 -5.5,-0.59 -7.62,-1.801 -2.13,-1.199 -3.85,-2.629 -5.16,-4.308 -1.32,-1.68 -2.28,-3.418 -2.88,-5.231 -0.61,-1.801 -0.9,-3.301 -0.9,-4.5 V 640.82 h -10.2 v 62.032 h 9.6"
         style="fill:#176fc1;fill-opacity:1;fill-rule:nonzero;stroke:none"
         id="path132" /><path
         d="m 1501.65,670.762 c -2.08,-0.453 -4.25,-0.801 -6.53,-1.09 -2.28,-0.281 -4.59,-0.59 -6.91,-0.961 -2.32,-0.352 -4.4,-0.941 -6.23,-1.742 -1.85,-0.797 -3.35,-1.93 -4.51,-3.418 -1.16,-1.481 -1.73,-3.492 -1.73,-6.051 0,-1.68 0.33,-3.109 1.01,-4.262 0.68,-1.168 1.56,-2.109 2.64,-2.828 1.08,-0.711 2.36,-1.23 3.85,-1.558 1.48,-0.321 2.97,-0.473 4.49,-0.473 3.36,0 6.24,0.449 8.65,1.371 2.39,0.922 4.35,2.082 5.87,3.488 1.52,1.391 2.65,2.91 3.36,4.551 0.72,1.641 1.08,3.18 1.08,4.633 v 10.43 c -1.28,-0.961 -2.96,-1.661 -5.04,-2.09 z m 14.29,-31.274 c -2.65,0 -4.74,0.742 -6.31,2.231 -1.55,1.472 -2.34,3.89 -2.34,7.25 -2.8,-3.36 -6.06,-5.778 -9.78,-7.25 -3.72,-1.489 -7.74,-2.231 -12.06,-2.231 -2.79,0 -5.44,0.301 -7.92,0.903 -2.48,0.597 -4.66,1.597 -6.53,3.007 -1.88,1.391 -3.36,3.192 -4.44,5.391 -1.09,2.199 -1.62,4.859 -1.62,7.992 0,3.508 0.6,6.391 1.79,8.629 1.2,2.238 2.78,4.059 4.74,5.469 1.96,1.391 4.2,2.461 6.72,3.18 2.52,0.711 5.1,1.312 7.75,1.8 2.79,0.551 5.46,0.973 7.98,1.25 2.51,0.282 4.74,0.68 6.66,1.211 1.91,0.508 3.43,1.27 4.56,2.27 1.11,1.012 1.68,2.461 1.68,4.39 0,2.231 -0.42,4.032 -1.26,5.391 -0.84,1.367 -1.93,2.399 -3.25,3.117 -1.31,0.731 -2.8,1.211 -4.44,1.453 -1.64,0.231 -3.26,0.348 -4.85,0.348 -4.32,0 -7.92,-0.82 -10.8,-2.457 -2.89,-1.641 -4.45,-4.742 -4.69,-9.301 h -10.2 c 0.16,3.84 0.96,7.078 2.41,9.731 1.44,2.636 3.35,4.769 5.75,6.41 2.4,1.637 5.16,2.828 8.28,3.547 3.12,0.711 6.4,1.07 9.84,1.07 2.81,0 5.58,-0.187 8.34,-0.598 2.77,-0.39 5.27,-1.211 7.5,-2.461 2.24,-1.23 4.05,-2.98 5.4,-5.218 1.36,-2.242 2.04,-5.153 2.04,-8.762 v -31.918 c 0,-2.402 0.15,-4.16 0.42,-5.273 0.28,-1.129 1.23,-1.68 2.83,-1.68 0.88,0 1.91,0.191 3.12,0.59 v -7.918 c -1.77,-1.031 -4.2,-1.563 -7.32,-1.563"
         style="fill:#176fc1;fill-opacity:1;fill-rule:nonzero;stroke:none"
         id="path134" /><path
         d="M 1543.54,726.492 V 640.82 h -10.21 v 85.672 h 10.21"
         style="fill:#176fc1;fill-opacity:1;fill-rule:nonzero;stroke:none"
         id="path136" /><path
         d="M 1570.17,726.492 V 640.82 h -10.2 v 85.672 h 10.2"
         style="fill:#176fc1;fill-opacity:1;fill-rule:nonzero;stroke:none"
         id="path138" /><path
         d="m 1018.54,549.859 v 8.993 h 10.44 v 9.238 c 0,5.039 1.46,8.859 4.38,11.461 2.92,2.597 7.18,3.91 12.78,3.91 0.96,0 2.06,-0.082 3.3,-0.242 1.24,-0.168 2.34,-0.41 3.3,-0.719 v -8.891 c -0.88,0.321 -1.84,0.551 -2.88,0.672 -1.04,0.11 -2,0.168 -2.88,0.168 -2.48,0 -4.4,-0.48 -5.76,-1.429 -1.36,-0.969 -2.04,-2.809 -2.04,-5.52 v -8.648 h 12 v -8.993 h -12 v -53.05 h -10.2 v 53.05 h -10.44"
         style="fill:#176fc1;fill-opacity:1;fill-rule:nonzero;stroke:none"
         id="path140" /><path
         d="m 1069.24,517.75 c 0.99,-2.918 2.38,-5.352 4.14,-7.32 1.76,-1.961 3.82,-3.461 6.17,-4.5 2.36,-1.032 4.87,-1.559 7.5,-1.559 2.65,0 5.15,0.527 7.5,1.559 2.36,1.039 4.42,2.539 6.19,4.5 1.75,1.968 3.14,4.402 4.14,7.32 1,2.922 1.5,6.262 1.5,10.02 0,3.769 -0.5,7.101 -1.5,10.019 -1,2.93 -2.39,5.383 -4.14,7.383 -1.77,2 -3.83,3.519 -6.19,4.558 -2.35,1.051 -4.85,1.571 -7.5,1.571 -2.63,0 -5.14,-0.52 -7.5,-1.571 -2.35,-1.039 -4.41,-2.558 -6.17,-4.558 -1.76,-2 -3.15,-4.453 -4.14,-7.383 -1,-2.918 -1.5,-6.25 -1.5,-10.019 0,-3.758 0.5,-7.098 1.5,-10.02 z m -10.38,22.801 c 1.28,3.961 3.19,7.398 5.76,10.328 2.56,2.91 5.72,5.211 9.48,6.891 3.76,1.679 8.08,2.519 12.95,2.519 4.97,0 9.31,-0.84 13.03,-2.519 3.72,-1.68 6.85,-3.981 9.42,-6.891 2.55,-2.93 4.47,-6.367 5.76,-10.328 1.28,-3.949 1.92,-8.219 1.92,-12.781 0,-4.551 -0.64,-8.801 -1.92,-12.711 -1.29,-3.93 -3.21,-7.348 -5.76,-10.27 -2.57,-2.918 -5.7,-5.199 -9.42,-6.84 -3.72,-1.629 -8.06,-2.449 -13.03,-2.449 -4.87,0 -9.19,0.82 -12.95,2.449 -3.76,1.641 -6.92,3.922 -9.48,6.84 -2.57,2.922 -4.48,6.34 -5.76,10.27 -1.28,3.91 -1.92,8.16 -1.92,12.711 0,4.562 0.64,8.832 1.92,12.781"
         style="fill:#176fc1;fill-opacity:1;fill-rule:nonzero;stroke:none"
         id="path142" /><path
         d="m 1138.42,558.852 v -13.071 h 0.24 c 2.48,5.039 5.52,8.75 9.12,11.149 3.6,2.402 8.16,3.519 13.68,3.359 v -10.801 c -4.08,0 -7.56,-0.558 -10.44,-1.679 -2.88,-1.11 -5.21,-2.75 -6.96,-4.918 -1.76,-2.153 -3.05,-4.782 -3.84,-7.852 -0.8,-3.09 -1.2,-6.617 -1.2,-10.629 v -27.601 h -10.2 v 62.043 h 9.6"
         style="fill:#176fc1;fill-opacity:1;fill-rule:nonzero;stroke:none"
         id="path144" /><path
         d="m 1227.33,496.809 v 60.961 h -22.08 v 8.16 c 2.88,0 5.68,0.218 8.4,0.672 2.72,0.429 5.18,1.25 7.38,2.457 2.2,1.191 4.06,2.832 5.59,4.91 1.51,2.082 2.55,4.722 3.12,7.922 h 7.79 v -85.082 h -10.2"
         style="fill:#176fc1;fill-opacity:1;fill-rule:nonzero;stroke:none"
         id="path146" /><path
         d="m 1288.29,541.031 c -2.15,-0.992 -3.99,-2.359 -5.51,-4.082 -1.52,-1.719 -2.66,-3.758 -3.42,-6.109 -0.76,-2.371 -1.14,-4.871 -1.14,-7.5 0,-2.641 0.4,-5.121 1.2,-7.442 0.79,-2.328 1.94,-4.316 3.42,-6 1.48,-1.679 3.32,-3.027 5.52,-4.019 2.2,-1.008 4.7,-1.508 7.5,-1.508 2.8,0 5.26,0.5 7.38,1.508 2.12,0.992 3.9,2.383 5.34,4.141 1.44,1.761 2.54,3.781 3.3,6.05 0.76,2.289 1.14,4.668 1.14,7.149 0,2.64 -0.34,5.14 -1.02,7.5 -0.68,2.351 -1.74,4.39 -3.18,6.113 -1.44,1.719 -3.24,3.109 -5.4,4.137 -2.16,1.043 -4.68,1.57 -7.56,1.57 -2.88,0 -5.4,-0.508 -7.57,-1.508 z m 18.49,28.379 c -2.48,2.328 -5.76,3.481 -9.84,3.481 -4.32,0 -7.81,-1.059 -10.44,-3.18 -2.64,-2.109 -4.7,-4.789 -6.18,-8.031 -1.48,-3.25 -2.5,-6.739 -3.07,-10.508 -0.55,-3.75 -0.87,-7.281 -0.95,-10.563 l 0.24,-0.238 c 2.4,3.918 5.38,6.758 8.94,8.52 3.56,1.757 7.66,2.648 12.3,2.648 4.08,0 7.74,-0.699 10.98,-2.109 3.24,-1.399 5.96,-3.34 8.16,-5.821 2.2,-2.48 3.9,-5.39 5.1,-8.75 1.2,-3.367 1.8,-7.007 1.8,-10.929 0,-3.11 -0.48,-6.352 -1.44,-9.711 -0.96,-3.36 -2.54,-6.43 -4.74,-9.18 -2.21,-2.769 -5.12,-5.039 -8.76,-6.84 -3.64,-1.808 -8.14,-2.699 -13.51,-2.699 -6.31,0 -11.39,1.281 -15.23,3.832 -3.84,2.559 -6.8,5.84 -8.88,9.848 -2.09,3.992 -3.46,8.398 -4.14,13.199 -0.69,4.793 -1.02,9.43 -1.02,13.922 0,5.828 0.5,11.488 1.5,16.98 1,5.469 2.7,10.328 5.1,14.571 2.4,4.238 5.59,7.636 9.6,10.199 4,2.558 9.04,3.84 15.12,3.84 7.04,0 12.64,-1.852 16.8,-5.571 4.16,-3.718 6.56,-9.109 7.2,-16.148 h -10.21 c -0.47,3.848 -1.95,6.918 -4.43,9.238"
         style="fill:#176fc1;fill-opacity:1;fill-rule:nonzero;stroke:none"
         id="path148" /><path
         d="m 1383.16,536.832 c -0.76,2.758 -1.93,5.219 -3.48,7.387 -1.57,2.16 -3.56,3.871 -6,5.152 -2.45,1.277 -5.31,1.93 -8.58,1.93 -3.45,0 -6.37,-0.692 -8.76,-2.051 -2.41,-1.359 -4.36,-3.141 -5.88,-5.34 -1.53,-2.191 -2.62,-4.691 -3.3,-7.5 -0.69,-2.801 -1.02,-5.629 -1.02,-8.519 0,-3.039 0.36,-5.981 1.08,-8.809 0.71,-2.852 1.86,-5.352 3.41,-7.5 1.57,-2.172 3.58,-3.91 6.07,-5.23 2.47,-1.313 5.48,-1.981 9,-1.981 3.51,0 6.46,0.688 8.82,2.039 2.36,1.36 4.25,3.16 5.69,5.399 1.44,2.242 2.49,4.812 3.12,7.679 0.64,2.891 0.97,5.844 0.97,8.891 0,2.871 -0.38,5.703 -1.14,8.453 z m -36.66,22.02 v -8.403 h 0.24 c 1.68,3.442 4.31,5.942 7.92,7.5 3.6,1.563 7.56,2.34 11.88,2.34 4.8,0 8.98,-0.879 12.54,-2.641 3.56,-1.75 6.51,-4.136 8.88,-7.128 2.36,-3 4.13,-6.469 5.33,-10.391 1.21,-3.918 1.81,-8.078 1.81,-12.481 0,-4.386 -0.58,-8.546 -1.75,-12.476 -1.15,-3.922 -2.92,-7.34 -5.27,-10.25 -2.36,-2.934 -5.33,-5.223 -8.88,-6.902 -3.57,-1.68 -7.71,-2.52 -12.42,-2.52 -1.53,0 -3.23,0.16 -5.11,0.469 -1.88,0.332 -3.74,0.84 -5.57,1.57 -1.84,0.723 -3.59,1.699 -5.22,2.941 -1.64,1.239 -3.02,2.782 -4.14,4.622 h -0.24 V 473.18 h -10.2 v 85.672 h 10.2"
         style="fill:#176fc1;fill-opacity:1;fill-rule:nonzero;stroke:none"
         id="path150" /><path
         d="m 1402.17,558.852 h 13.08 l 14.88,-21.711 15.48,21.711 h 12.25 l -21.37,-28.563 24,-33.48 h -13.08 l -17.28,25.691 -17.27,-25.691 h -12.37 l 23.28,32.64 -21.6,29.403"
         style="fill:#176fc1;fill-opacity:1;fill-rule:nonzero;stroke:none"
         id="path152" /><path
         d="m 1502.25,534.98 v -9.609 h -34.68 v 9.609 h 34.68"
         style="fill:#176fc1;fill-opacity:1;fill-rule:nonzero;stroke:none"
         id="path154" /><path
         d="m 1540.77,496.809 v 60.961 h -22.08 v 8.16 c 2.88,0 5.68,0.218 8.4,0.672 2.72,0.429 5.18,1.25 7.38,2.457 2.2,1.191 4.06,2.832 5.58,4.91 1.52,2.082 2.56,4.722 3.12,7.922 h 7.8 v -85.082 h -10.2"
         style="fill:#176fc1;fill-opacity:1;fill-rule:nonzero;stroke:none"
         id="path156" /><path
         d="m 1581.57,563.77 c 1.12,3.691 2.86,6.859 5.22,9.55 2.36,2.668 5.3,4.77 8.82,6.289 3.52,1.52 7.52,2.282 12,2.282 3.68,0 7.14,-0.539 10.38,-1.621 3.24,-1.071 6.06,-2.641 8.46,-4.68 2.4,-2.039 4.3,-4.578 5.7,-7.61 1.4,-3.039 2.1,-6.57 2.1,-10.558 0,-3.774 -0.58,-7.09 -1.74,-9.961 -1.16,-2.891 -2.7,-5.473 -4.62,-7.75 -1.92,-2.27 -4.12,-4.34 -6.6,-6.18 -2.48,-1.832 -5.04,-3.59 -7.68,-5.269 -2.64,-1.602 -5.28,-3.184 -7.92,-4.75 -2.64,-1.563 -5.06,-3.223 -7.26,-4.981 -2.2,-1.75 -4.08,-3.652 -5.64,-5.699 -1.56,-2.031 -2.58,-4.371 -3.06,-7.012 h 43.68 v -9.011 h -55.56 c 0.4,5.043 1.3,9.339 2.7,12.902 1.4,3.57 3.18,6.668 5.34,9.309 2.16,2.64 4.6,4.949 7.32,6.949 2.72,2 5.56,3.883 8.52,5.652 3.6,2.231 6.76,4.301 9.48,6.168 2.72,1.883 4.98,3.793 6.78,5.699 1.8,1.922 3.16,4.012 4.08,6.242 0.92,2.239 1.38,4.84 1.38,7.809 0,2.313 -0.44,4.41 -1.32,6.301 -0.88,1.871 -2.06,3.492 -3.54,4.851 -1.48,1.368 -3.22,2.399 -5.22,3.118 -2,0.73 -4.12,1.082 -6.36,1.082 -2.96,0 -5.5,-0.621 -7.62,-1.86 -2.12,-1.242 -3.86,-2.859 -5.22,-4.859 -1.36,-1.992 -2.34,-4.262 -2.94,-6.781 -0.6,-2.52 -0.86,-5.059 -0.78,-7.61 h -10.2 c -0.24,4.309 0.2,8.321 1.32,11.989"
         style="fill:#176fc1;fill-opacity:1;fill-rule:nonzero;stroke:none"
         id="path158" /><path
         d="m 1657.83,527.949 c 0.2,-3.957 0.85,-7.679 1.92,-11.16 1.08,-3.469 2.82,-6.418 5.22,-8.809 2.4,-2.41 5.76,-3.609 10.08,-3.609 4.33,0 7.68,1.199 10.09,3.609 2.39,2.391 4.13,5.34 5.22,8.809 1.07,3.481 1.71,7.203 1.91,11.16 0.2,3.961 0.3,7.551 0.3,10.742 0,2.09 -0.02,4.379 -0.06,6.899 -0.04,2.519 -0.24,5.039 -0.6,7.558 -0.36,2.532 -0.87,4.981 -1.55,7.383 -0.69,2.399 -1.68,4.508 -3.01,6.301 -1.31,1.797 -2.97,3.27 -4.98,4.379 -2,1.121 -4.44,1.68 -7.32,1.68 -2.88,0 -5.32,-0.559 -7.32,-1.68 -2,-1.109 -3.66,-2.582 -4.98,-4.379 -1.32,-1.793 -2.32,-3.902 -3,-6.301 -0.68,-2.402 -1.2,-4.851 -1.56,-7.383 -0.36,-2.519 -0.56,-5.039 -0.6,-7.558 -0.04,-2.52 -0.06,-4.809 -0.06,-6.899 0,-3.191 0.1,-6.781 0.3,-10.742 z m -10.86,20.352 c 0.16,3.359 0.56,6.64 1.2,9.828 0.64,3.199 1.57,6.242 2.76,9.121 1.2,2.879 2.84,5.398 4.92,7.559 2.08,2.16 4.7,3.882 7.86,5.171 3.17,1.27 6.94,1.911 11.34,1.911 4.4,0 8.18,-0.641 11.35,-1.911 3.15,-1.289 5.77,-3.011 7.85,-5.171 2.08,-2.161 3.72,-4.68 4.92,-7.559 1.2,-2.879 2.12,-5.922 2.76,-9.121 0.64,-3.188 1.04,-6.469 1.2,-9.828 0.16,-3.36 0.24,-6.602 0.24,-9.731 0,-3.121 -0.08,-6.359 -0.24,-9.718 -0.16,-3.352 -0.56,-6.641 -1.2,-9.832 -0.64,-3.2 -1.56,-6.231 -2.76,-9.059 -1.2,-2.852 -2.84,-5.352 -4.92,-7.5 -2.08,-2.172 -4.68,-3.871 -7.8,-5.102 -3.12,-1.25 -6.91,-1.859 -11.4,-1.859 -4.4,0 -8.17,0.609 -11.34,1.859 -3.16,1.231 -5.78,2.93 -7.86,5.102 -2.08,2.148 -3.72,4.648 -4.92,7.5 -1.19,2.828 -2.12,5.859 -2.76,9.059 -0.64,3.191 -1.04,6.48 -1.2,9.832 -0.16,3.359 -0.24,6.597 -0.24,9.718 0,3.129 0.08,6.371 0.24,9.731"
         style="fill:#176fc1;fill-opacity:1;fill-rule:nonzero;stroke:none"
         id="path160" /><path
         d="m 1763.31,536.832 c -0.76,2.758 -1.92,5.219 -3.48,7.387 -1.56,2.16 -3.56,3.871 -6,5.152 -2.44,1.277 -5.3,1.93 -8.58,1.93 -3.44,0 -6.36,-0.692 -8.76,-2.051 -2.4,-1.359 -4.36,-3.141 -5.88,-5.34 -1.52,-2.191 -2.62,-4.691 -3.3,-7.5 -0.68,-2.801 -1.02,-5.629 -1.02,-8.519 0,-3.039 0.36,-5.981 1.08,-8.809 0.72,-2.852 1.86,-5.352 3.42,-7.5 1.56,-2.172 3.58,-3.91 6.07,-5.23 2.47,-1.313 5.47,-1.981 8.99,-1.981 3.52,0 6.46,0.688 8.82,2.039 2.36,1.36 4.26,3.16 5.7,5.399 1.44,2.242 2.48,4.812 3.12,7.679 0.64,2.891 0.96,5.844 0.96,8.891 0,2.871 -0.38,5.703 -1.14,8.453 z m -36.66,22.02 v -8.403 h 0.24 c 1.68,3.442 4.32,5.942 7.92,7.5 3.6,1.563 7.56,2.34 11.88,2.34 4.8,0 8.98,-0.879 12.54,-2.641 3.56,-1.75 6.52,-4.136 8.88,-7.128 2.36,-3 4.14,-6.469 5.34,-10.391 1.2,-3.918 1.8,-8.078 1.8,-12.481 0,-4.386 -0.58,-8.546 -1.74,-12.476 -1.16,-3.922 -2.92,-7.34 -5.28,-10.25 -2.36,-2.934 -5.32,-5.223 -8.87,-6.902 -3.57,-1.68 -7.71,-2.52 -12.43,-2.52 -1.52,0 -3.22,0.16 -5.1,0.469 -1.88,0.332 -3.74,0.84 -5.58,1.57 -1.84,0.723 -3.58,1.699 -5.21,2.941 -1.65,1.239 -3.03,2.782 -4.15,4.622 h -0.24 V 473.18 h -10.2 v 85.672 h 10.2"
         style="fill:#176fc1;fill-opacity:1;fill-rule:nonzero;stroke:none"
         id="path162" /><path
         d="m 1782.33,558.852 h 13.08 l 14.88,-21.711 15.48,21.711 h 12.24 l -21.36,-28.563 24,-33.48 h -13.08 l -17.28,25.691 -17.28,-25.691 h -12.36 l 23.28,32.64 -21.6,29.403"
         style="fill:#176fc1;fill-opacity:1;fill-rule:nonzero;stroke:none"
         id="path164" /><path
         d="m 3356.33,726.5 v -76.07 h 45.36 v -9.61 h -56.75 v 85.68 h 11.39"
         style="fill:#176fc1;fill-opacity:1;fill-rule:nonzero;stroke:none"
         id="path166" /><path
         d="m 3443.33,670.762 c -2.09,-0.442 -4.25,-0.801 -6.54,-1.082 -2.28,-0.282 -4.59,-0.598 -6.9,-0.95 -2.32,-0.371 -4.41,-0.949 -6.24,-1.742 -1.84,-0.797 -3.34,-1.949 -4.5,-3.429 -1.17,-1.469 -1.73,-3.5 -1.73,-6.059 0,-1.68 0.33,-3.102 1.01,-4.262 0.68,-1.148 1.56,-2.09 2.64,-2.808 1.07,-0.719 2.36,-1.25 3.85,-1.571 1.47,-0.32 2.96,-0.48 4.49,-0.48 3.36,0 6.24,0.473 8.64,1.383 2.39,0.918 4.36,2.078 5.88,3.476 1.51,1.41 2.65,2.934 3.36,4.571 0.71,1.632 1.08,3.171 1.08,4.613 v 10.449 c -1.29,-0.973 -2.97,-1.66 -5.04,-2.109 z m 14.28,-31.25 c -2.64,0 -4.74,0.73 -6.31,2.207 -1.55,1.48 -2.33,3.902 -2.33,7.261 -2.8,-3.359 -6.07,-5.781 -9.78,-7.261 -3.73,-1.477 -7.74,-2.207 -12.07,-2.207 -2.79,0 -5.43,0.289 -7.91,0.898 -2.48,0.59 -4.67,1.602 -6.54,2.988 -1.88,1.403 -3.36,3.204 -4.43,5.411 -1.1,2.191 -1.62,4.863 -1.62,7.972 0,3.52 0.59,6.399 1.79,8.649 1.19,2.23 2.78,4.05 4.74,5.449 1.96,1.402 4.2,2.461 6.72,3.18 2.52,0.722 5.1,1.332 7.74,1.8 2.79,0.563 5.46,0.981 7.98,1.27 2.52,0.269 4.74,0.672 6.66,1.191 1.92,0.532 3.44,1.289 4.56,2.282 1.11,1 1.68,2.457 1.68,4.378 0,2.239 -0.42,4.04 -1.26,5.411 -0.84,1.347 -1.92,2.39 -3.24,3.109 -1.32,0.719 -2.8,1.211 -4.45,1.441 -1.64,0.239 -3.26,0.368 -4.85,0.368 -4.32,0 -7.92,-0.829 -10.8,-2.457 -2.88,-1.641 -4.44,-4.75 -4.68,-9.313 h -10.2 c 0.16,3.84 0.96,7.082 2.4,9.723 1.44,2.636 3.36,4.777 5.75,6.418 2.4,1.648 5.17,2.82 8.28,3.539 3.13,0.722 6.41,1.082 9.85,1.082 2.8,0 5.58,-0.199 8.34,-0.59 2.76,-0.41 5.26,-1.231 7.5,-2.461 2.24,-1.25 4.04,-2.988 5.4,-5.23 1.35,-2.231 2.04,-5.161 2.04,-8.758 v -31.91 c 0,-2.403 0.14,-4.161 0.42,-5.293 0.28,-1.118 1.22,-1.68 2.82,-1.68 0.88,0 1.91,0.203 3.13,0.601 v -7.921 c -1.77,-1.039 -4.2,-1.547 -7.33,-1.547"
         style="fill:#176fc1;fill-opacity:1;fill-rule:nonzero;stroke:none"
         id="path168" /><path
         d="m 3483.65,702.871 v -13.09 h 0.23 c 2.48,5.039 5.53,8.758 9.12,11.168 3.61,2.391 8.17,3.512 13.69,3.352 V 693.5 c -4.08,0 -7.56,-0.551 -10.45,-1.68 -2.87,-1.121 -5.19,-2.761 -6.95,-4.922 -1.76,-2.16 -3.05,-4.769 -3.85,-7.859 -0.8,-3.078 -1.19,-6.617 -1.19,-10.617 V 640.82 h -10.2 v 62.051 h 9.6"
         style="fill:#176fc1;fill-opacity:1;fill-rule:nonzero;stroke:none"
         id="path170" /><path
         d="m 3544.54,651.211 c 2.37,1.391 4.26,3.23 5.71,5.508 1.44,2.281 2.5,4.863 3.18,7.742 0.68,2.879 1.02,5.758 1.02,8.641 0,2.718 -0.32,5.398 -0.96,8.046 -0.64,2.641 -1.66,5.024 -3.07,7.133 -1.39,2.129 -3.22,3.828 -5.45,5.098 -2.24,1.293 -4.96,1.93 -8.16,1.93 -3.28,0 -6.08,-0.629 -8.4,-1.86 -2.32,-1.238 -4.22,-2.91 -5.7,-4.988 -1.49,-2.082 -2.56,-4.481 -3.24,-7.191 -0.69,-2.731 -1.02,-5.571 -1.02,-8.528 0,-2.801 0.27,-5.594 0.84,-8.402 0.56,-2.801 1.52,-5.34 2.87,-7.621 1.37,-2.278 3.17,-4.117 5.41,-5.508 2.24,-1.41 5.04,-2.109 8.4,-2.109 3.36,0 6.21,0.699 8.57,2.109 z m 13.03,-27.91 c -4.65,-5.039 -11.92,-7.563 -21.83,-7.563 -2.89,0 -5.82,0.321 -8.83,0.961 -3,0.641 -5.72,1.68 -8.17,3.121 -2.44,1.45 -4.45,3.321 -6.05,5.649 -1.6,2.32 -2.48,5.152 -2.64,8.511 h 10.2 c 0.08,-1.832 0.66,-3.398 1.74,-4.679 1.08,-1.27 2.4,-2.313 3.96,-3.11 1.56,-0.8 3.26,-1.39 5.1,-1.75 1.83,-0.359 3.59,-0.543 5.27,-0.543 3.37,0 6.21,0.59 8.53,1.743 2.31,1.16 4.25,2.757 5.76,4.808 1.51,2.031 2.62,4.492 3.3,7.383 0.67,2.867 1.03,6.027 1.03,9.469 v 4.078 h -0.25 c -1.77,-3.84 -4.42,-6.66 -7.98,-8.449 -3.56,-1.809 -7.34,-2.711 -11.34,-2.711 -4.64,0 -8.68,0.84 -12.11,2.523 -3.45,1.68 -6.33,3.938 -8.66,6.789 -2.31,2.828 -4.06,6.149 -5.21,9.957 -1.16,3.793 -1.74,7.813 -1.74,12.051 0,3.68 0.48,7.461 1.45,11.352 0.95,3.859 2.55,7.39 4.79,10.558 2.24,3.153 5.21,5.75 8.88,7.801 3.68,2.031 8.2,3.051 13.55,3.051 3.93,0 7.52,-0.871 10.8,-2.582 3.28,-1.719 5.84,-4.297 7.69,-7.739 h 0.13 v 8.891 h 9.59 v -56.769 c 0,-10.153 -2.33,-17.762 -6.96,-22.801"
         style="fill:#176fc1;fill-opacity:1;fill-rule:nonzero;stroke:none"
         id="path172" /><path
         d="m 3621.34,684.629 c -0.92,2.152 -2.15,4.019 -3.71,5.57 -1.56,1.571 -3.41,2.801 -5.53,3.723 -2.12,0.918 -4.45,1.387 -7.01,1.387 -2.64,0 -5.03,-0.469 -7.15,-1.387 -2.12,-0.922 -3.94,-2.184 -5.46,-3.781 -1.51,-1.602 -2.72,-3.461 -3.6,-5.571 -0.88,-2.129 -1.4,-4.39 -1.55,-6.789 h 35.63 c -0.15,2.399 -0.7,4.68 -1.62,6.848 z m 2.46,-39.848 c -4.63,-3.511 -10.48,-5.269 -17.52,-5.269 -4.96,0 -9.25,0.797 -12.89,2.386 -3.65,1.602 -6.71,3.84 -9.18,6.723 -2.48,2.879 -4.34,6.32 -5.58,10.32 -1.24,4.008 -1.95,8.36 -2.1,13.09 0,4.707 0.71,9.028 2.16,12.949 1.44,3.918 3.45,7.321 6.05,10.2 2.6,2.879 5.68,5.121 9.25,6.718 3.55,1.602 7.45,2.403 11.7,2.403 5.52,0 10.1,-1.141 13.74,-3.422 3.63,-2.277 6.56,-5.18 8.76,-8.699 2.19,-3.52 3.72,-7.36 4.56,-11.52 0.84,-4.16 1.17,-8.121 1.01,-11.871 h -46.43 c -0.09,-2.73 0.24,-5.309 0.96,-7.75 0.72,-2.437 1.88,-4.598 3.48,-6.469 1.59,-1.89 3.63,-3.379 6.11,-4.511 2.49,-1.118 5.41,-1.68 8.76,-1.68 4.33,0 7.87,1 10.62,3 2.77,2 4.59,5.043 5.47,9.121 h 10.08 c -1.37,-6.961 -4.36,-12.199 -9.01,-15.719"
         style="fill:#176fc1;fill-opacity:1;fill-rule:nonzero;stroke:none"
         id="path174" /><path
         d="m 3653.57,702.871 v -13.09 h 0.23 c 2.48,5.039 5.53,8.758 9.12,11.168 3.6,2.391 8.17,3.512 13.69,3.352 V 693.5 c -4.09,0 -7.56,-0.551 -10.44,-1.68 -2.88,-1.121 -5.21,-2.761 -6.97,-4.922 -1.75,-2.16 -3.03,-4.769 -3.83,-7.859 -0.81,-3.078 -1.2,-6.617 -1.2,-10.617 V 640.82 h -10.21 v 62.051 h 9.61"
         style="fill:#176fc1;fill-opacity:1;fill-rule:nonzero;stroke:none"
         id="path176" /><path
         d="m 3182.57,549.859 v 9 h 10.44 v 9.243 c 0,5.039 1.46,8.867 4.39,11.468 2.91,2.602 7.16,3.891 12.77,3.891 0.96,0 2.06,-0.082 3.3,-0.242 1.24,-0.16 2.34,-0.387 3.3,-0.719 v -8.871 c -0.88,0.312 -1.83,0.531 -2.88,0.652 -1.04,0.117 -2,0.188 -2.88,0.188 -2.48,0 -4.39,-0.489 -5.76,-1.438 -1.36,-0.961 -2.03,-2.812 -2.03,-5.531 v -8.641 h 11.99 v -9 h -11.99 V 496.82 h -10.21 v 53.039 h -10.44"
         style="fill:#176fc1;fill-opacity:1;fill-rule:nonzero;stroke:none"
         id="path178" /><path
         d="m 3233.28,517.77 c 0.99,-2.93 2.37,-5.372 4.14,-7.321 1.75,-1.969 3.8,-3.461 6.17,-4.5 2.36,-1.051 4.86,-1.57 7.5,-1.57 2.63,0 5.13,0.519 7.5,1.57 2.36,1.039 4.41,2.531 6.18,4.5 1.76,1.949 3.13,4.391 4.14,7.321 1.01,2.91 1.49,6.25 1.49,10.019 0,3.75 -0.48,7.09 -1.49,10.02 -1.01,2.91 -2.38,5.371 -4.14,7.371 -1.77,2 -3.82,3.531 -6.18,4.558 -2.37,1.043 -4.87,1.571 -7.5,1.571 -2.64,0 -5.14,-0.528 -7.5,-1.571 -2.37,-1.027 -4.42,-2.558 -6.17,-4.558 -1.77,-2 -3.15,-4.461 -4.14,-7.371 -1.01,-2.93 -1.51,-6.27 -1.51,-10.02 0,-3.769 0.5,-7.109 1.51,-10.019 z m -10.4,22.789 c 1.29,3.972 3.21,7.41 5.77,10.32 2.56,2.93 5.72,5.23 9.48,6.91 3.76,1.68 8.08,2.52 12.96,2.52 4.96,0 9.29,-0.84 13.03,-2.52 3.71,-1.68 6.85,-3.98 9.41,-6.91 2.56,-2.91 4.47,-6.348 5.76,-10.32 1.28,-3.957 1.92,-8.219 1.92,-12.77 0,-4.57 -0.64,-8.809 -1.92,-12.719 -1.29,-3.922 -3.2,-7.351 -5.76,-10.269 -2.56,-2.922 -5.7,-5.192 -9.41,-6.832 -3.74,-1.641 -8.07,-2.469 -13.03,-2.469 -4.88,0 -9.2,0.828 -12.96,2.469 -3.76,1.64 -6.92,3.91 -9.48,6.832 -2.56,2.918 -4.48,6.347 -5.77,10.269 -1.26,3.91 -1.91,8.149 -1.91,12.719 0,4.551 0.65,8.813 1.91,12.77"
         style="fill:#176fc1;fill-opacity:1;fill-rule:nonzero;stroke:none"
         id="path180" /><path
         d="m 3302.46,558.859 v -13.078 h 0.23 c 2.48,5.039 5.53,8.77 9.12,11.168 3.59,2.391 8.16,3.52 13.68,3.36 v -10.797 c -4.08,0 -7.56,-0.571 -10.44,-1.68 -2.88,-1.133 -5.2,-2.762 -6.96,-4.922 -1.76,-2.172 -3.04,-4.789 -3.84,-7.871 -0.8,-3.07 -1.2,-6.617 -1.2,-10.617 V 496.82 h -10.2 v 62.039 h 9.61"
         style="fill:#176fc1;fill-opacity:1;fill-rule:nonzero;stroke:none"
         id="path182" /><path
         d="m 3391.36,496.82 v 60.969 h -22.07 v 8.16 c 2.87,0 5.67,0.223 8.4,0.653 2.71,0.449 5.18,1.269 7.38,2.457 2.19,1.211 4.05,2.839 5.58,4.921 1.51,2.079 2.56,4.731 3.11,7.918 h 7.81 V 496.82 h -10.21"
         style="fill:#176fc1;fill-opacity:1;fill-rule:nonzero;stroke:none"
         id="path184" /><path
         d="m 3432.17,563.789 c 1.12,3.672 2.86,6.852 5.23,9.531 2.35,2.68 5.29,4.782 8.81,6.309 3.52,1.512 7.51,2.269 12.01,2.269 3.67,0 7.13,-0.539 10.37,-1.609 3.24,-1.09 6.06,-2.648 8.45,-4.687 2.41,-2.043 4.31,-4.582 5.71,-7.614 1.4,-3.047 2.11,-6.566 2.11,-10.566 0,-3.75 -0.59,-7.07 -1.75,-9.961 -1.16,-2.871 -2.71,-5.449 -4.62,-7.742 -1.91,-2.278 -4.12,-4.328 -6.6,-6.18 -2.48,-1.84 -5.04,-3.598 -7.68,-5.277 -2.63,-1.602 -5.28,-3.172 -7.93,-4.742 -2.63,-1.551 -5.06,-3.219 -7.24,-4.981 -2.21,-1.758 -4.08,-3.66 -5.65,-5.687 -1.56,-2.051 -2.58,-4.391 -3.06,-7.032 h 43.69 v -9 h -55.57 c 0.4,5.039 1.3,9.352 2.7,12.899 1.4,3.562 3.18,6.66 5.34,9.301 2.16,2.64 4.6,4.96 7.32,6.96 2.72,2.008 5.56,3.879 8.52,5.641 3.6,2.238 6.77,4.301 9.48,6.188 2.72,1.871 4.98,3.773 6.78,5.691 1.79,1.93 3.16,4 4.08,6.238 0.92,2.25 1.39,4.852 1.39,7.801 0,2.32 -0.45,4.43 -1.33,6.313 -0.88,1.867 -2.06,3.488 -3.54,4.859 -1.48,1.348 -3.22,2.398 -5.22,3.109 -2,0.719 -4.12,1.09 -6.36,1.09 -2.97,0 -5.51,-0.629 -7.62,-1.871 -2.12,-1.238 -3.86,-2.859 -5.22,-4.848 -1.36,-2.011 -2.33,-4.269 -2.94,-6.793 -0.61,-2.519 -0.86,-5.058 -0.78,-7.617 h -10.2 c -0.24,4.328 0.2,8.321 1.32,12.008"
         style="fill:#176fc1;fill-opacity:1;fill-rule:nonzero;stroke:none"
         id="path186" /><path
         d="m 3508.43,527.969 c 0.2,-3.969 0.84,-7.68 1.92,-11.168 1.08,-3.481 2.82,-6.41 5.22,-8.813 2.39,-2.406 5.75,-3.609 10.08,-3.609 4.32,0 7.68,1.203 10.09,3.609 2.39,2.403 4.13,5.332 5.21,8.813 1.08,3.488 1.72,7.199 1.92,11.168 0.19,3.953 0.3,7.531 0.3,10.742 0,2.07 -0.02,4.371 -0.06,6.891 -0.05,2.519 -0.24,5.039 -0.6,7.558 -0.37,2.52 -0.88,4.981 -1.56,7.379 -0.68,2.41 -1.68,4.5 -3.01,6.301 -1.31,1.808 -2.97,3.262 -4.98,4.39 -1.99,1.11 -4.43,1.68 -7.31,1.68 -2.88,0 -5.32,-0.57 -7.32,-1.68 -2.01,-1.128 -3.67,-2.582 -4.98,-4.39 -1.32,-1.801 -2.32,-3.891 -3,-6.301 -0.69,-2.398 -1.2,-4.859 -1.57,-7.379 -0.35,-2.519 -0.55,-5.039 -0.59,-7.558 -0.04,-2.52 -0.06,-4.821 -0.06,-6.891 0,-3.211 0.1,-6.789 0.3,-10.742 z m -10.86,20.332 c 0.16,3.359 0.56,6.64 1.19,9.84 0.65,3.211 1.57,6.238 2.77,9.121 1.2,2.879 2.84,5.398 4.92,7.558 2.08,2.168 4.7,3.891 7.86,5.16 3.16,1.29 6.93,1.918 11.34,1.918 4.4,0 8.17,-0.628 11.34,-1.918 3.16,-1.269 5.78,-2.992 7.86,-5.16 2.08,-2.16 3.72,-4.679 4.92,-7.558 1.2,-2.883 2.12,-5.91 2.76,-9.121 0.64,-3.2 1.04,-6.481 1.19,-9.84 0.17,-3.36 0.25,-6.602 0.25,-9.719 0,-3.113 -0.08,-6.363 -0.25,-9.723 -0.15,-3.359 -0.55,-6.64 -1.19,-9.839 -0.64,-3.2 -1.56,-6.219 -2.76,-9.059 -1.2,-2.832 -2.84,-5.332 -4.92,-7.5 -2.08,-2.152 -4.68,-3.859 -7.81,-5.102 -3.11,-1.23 -6.91,-1.859 -11.39,-1.859 -4.41,0 -8.18,0.629 -11.34,1.859 -3.16,1.243 -5.78,2.95 -7.86,5.102 -2.08,2.168 -3.72,4.668 -4.92,7.5 -1.2,2.84 -2.12,5.859 -2.77,9.059 -0.63,3.199 -1.03,6.48 -1.19,9.839 -0.16,3.36 -0.24,6.61 -0.24,9.723 0,3.117 0.08,6.359 0.24,9.719"
         style="fill:#176fc1;fill-opacity:1;fill-rule:nonzero;stroke:none"
         id="path188" /><path
         d="m 3613.91,536.84 c -0.76,2.769 -1.92,5.23 -3.49,7.39 -1.56,2.149 -3.55,3.872 -5.99,5.149 -2.44,1.281 -5.31,1.93 -8.58,1.93 -3.44,0 -6.36,-0.688 -8.77,-2.039 -2.4,-1.36 -4.35,-3.141 -5.87,-5.348 -1.53,-2.203 -2.62,-4.703 -3.31,-7.5 -0.68,-2.801 -1.01,-5.641 -1.01,-8.512 0,-3.051 0.36,-5.988 1.07,-8.828 0.73,-2.832 1.87,-5.332 3.42,-7.5 1.56,-2.16 3.58,-3.902 6.08,-5.223 2.47,-1.32 5.46,-1.98 8.99,-1.98 3.51,0 6.45,0.68 8.82,2.043 2.36,1.359 4.26,3.168 5.7,5.398 1.44,2.239 2.48,4.801 3.12,7.692 0.63,2.867 0.96,5.84 0.96,8.867 0,2.891 -0.39,5.703 -1.14,8.461 z m -36.66,22.019 v -8.39 h 0.24 c 1.68,3.429 4.32,5.929 7.91,7.5 3.61,1.562 7.56,2.34 11.89,2.34 4.79,0 8.97,-0.887 12.54,-2.649 3.56,-1.762 6.51,-4.14 8.88,-7.129 2.36,-3.011 4.14,-6.472 5.34,-10.39 1.2,-3.911 1.8,-8.071 1.8,-12.481 0,-4.398 -0.58,-8.558 -1.74,-12.48 -1.17,-3.91 -2.92,-7.328 -5.29,-10.258 -2.35,-2.91 -5.31,-5.211 -8.86,-6.891 -3.58,-1.679 -7.72,-2.531 -12.43,-2.531 -1.52,0 -3.22,0.16 -5.1,0.48 -1.89,0.329 -3.74,0.84 -5.58,1.559 -1.84,0.723 -3.58,1.699 -5.22,2.949 -1.64,1.231 -3.02,2.774 -4.14,4.614 h -0.24 V 473.18 h -10.21 v 85.679 h 10.21"
         style="fill:#176fc1;fill-opacity:1;fill-rule:nonzero;stroke:none"
         id="path190" /><path
         d="m 3632.92,558.859 h 13.09 l 14.87,-21.711 15.48,21.711 h 12.25 l -21.37,-28.55 24,-33.489 h -13.08 l -17.28,25.68 -17.27,-25.68 h -12.37 l 23.29,32.649 -21.61,29.39"
         style="fill:#176fc1;fill-opacity:1;fill-rule:nonzero;stroke:none"
         id="path192" /><path
         d="m 3791.93,531.27 v -8.168 h -26.16 V 496.82 h -8.16 v 26.282 h -26.16 v 8.168 h 26.16 v 26.269 h 8.16 V 531.27 h 26.16"
         style="fill:#176fc1;fill-opacity:1;fill-rule:nonzero;stroke:none"
         id="path194" /></g></g></svg>
